<?xml version="1.0" encoding="UTF-8" standalone="no"?>
<!-- Generator: Adobe Illustrator 19.2.1, SVG Export Plug-In . SVG Version: 6.00 Build 0)  -->

<svg
   version="1.1"
   id="Ebene_1"
   x="0px"
   y="0px"
   viewBox="0 0 64 64.7"
   xml:space="preserve"
   sodipodi:docname="forge2.svg"
   inkscape:version="1.2.1 (9c6d41e410, 2022-07-14, custom)"
   width="64"
   height="64.699997"
   xmlns:inkscape="http://www.inkscape.org/namespaces/inkscape"
   xmlns:sodipodi="http://sodipodi.sourceforge.net/DTD/sodipodi-0.dtd"
   xmlns="http://www.w3.org/2000/svg"
   xmlns:svg="http://www.w3.org/2000/svg"><defs
   id="defs23" /><sodipodi:namedview
   id="namedview21"
   pagecolor="#ffffff"
   bordercolor="#000000"
   borderopacity="0.25"
   inkscape:showpageshadow="2"
   inkscape:pageopacity="0.0"
   inkscape:pagecheckerboard="0"
   inkscape:deskcolor="#d1d1d1"
   showgrid="false"
   inkscape:zoom="10.21817"
   inkscape:cx="54.363943"
   inkscape:cy="36.405737"
   inkscape:window-width="1920"
   inkscape:window-height="1057"
   inkscape:window-x="0"
   inkscape:window-y="0"
   inkscape:window-maximized="1"
   inkscape:current-layer="g18" />
<style
   type="text/css"
   id="style2">
	.st0{fill:#DFA86A;}
	.st1{fill:#FAF4F3;}
</style>
<g
   id="g18">
	
	<path
   class="st1"
   d="M 56.528522,21.018646 30.159202,19.693204 H 62.38837 V 17.112081 H 25.973596 v 5.441288 4.325126 c 0,0.06976 -1.046401,-6.348169 -1.325442,-8.161931 H 21.78799 v 4.743686 4.325127 c 0,0.06976 -1.255681,-7.603851 -1.325442,-8.580493 -7.25505,0 -19.46306877,0 -19.46306877,0 1.32544207,1.116161 8.65025297,7.394572 13.88226077,9.975695 2.581125,1.255682 5.790089,1.325442 8.650253,1.395202 1.464962,0.06976 2.929925,0.139519 4.046086,1.255682 1.604483,1.534722 1.953283,3.976325 0.558081,5.790089 -1.325442,1.813762 -5.092487,2.232322 -5.092487,2.232322 l -3.208965,3.767046 v 4.464647 h 7.18529 l 0.209281,-4.394887 6.208649,-4.394887 c -0.627841,0.558081 -2.162563,1.953283 -4.325127,5.371529 -0.48832,0.76736 -0.906881,1.604482 -1.185921,2.441603 1.534721,-1.325442 4.743687,-2.232323 8.510732,-2.232323 3.697285,0 6.906251,0.906881 8.440972,2.232323 -0.27904,-0.837121 -0.697601,-1.674243 -1.185921,-2.441603 -2.232324,-3.418246 -3.697286,-4.813448 -4.325127,-5.371529 l 6.208649,4.394887 0.209281,4.394887 h 6.696969 V 43.62092 l -3.139204,-3.836805 c 0,0 -4.673926,-0.279041 -5.859849,-2.232324 -3.627524,-5.441287 1.325442,-13.95202 13.04514,-16.533145 z"
   id="path16"
   style="stroke-width:0.697601" />
</g>
</svg>
