<svg id="svg" version="1.1" xmlns="http://www.w3.org/2000/svg" xmlns:xlink="http://www.w3.org/1999/xlink" width="400" height="400" viewBox="0, 0, 400,400"><g id="svgg"><path id="path0" d="M114.928 4.162 C 113.919 4.722,111.917 6.770,108.808 10.424 C 107.602 11.841,106.159 13.450,105.600 14.000 C 105.041 14.550,103.598 16.166,102.392 17.591 C 101.186 19.015,99.569 20.815,98.799 21.591 C 98.028 22.366,96.588 23.983,95.599 25.185 C 94.609 26.387,92.834 28.367,91.653 29.585 C 90.472 30.803,89.032 32.419,88.453 33.176 C 87.874 33.933,86.590 35.379,85.600 36.391 C 84.610 37.402,82.814 39.393,81.608 40.815 C 80.402 42.237,78.959 43.850,78.400 44.400 C 77.841 44.950,76.398 46.560,75.192 47.979 C 73.986 49.397,72.505 51.089,71.900 51.738 C 71.295 52.387,70.800 53.331,70.800 53.836 C 70.800 54.340,70.620 54.864,70.400 55.000 C 70.180 55.136,70.000 56.126,70.000 57.200 C 70.000 58.274,69.820 59.264,69.600 59.400 C 69.380 59.536,69.200 60.526,69.200 61.600 C 69.200 62.674,69.020 63.664,68.800 63.800 C 68.580 63.936,68.400 64.926,68.400 66.000 C 68.400 67.074,68.220 68.064,68.000 68.200 C 67.780 68.336,67.600 69.326,67.600 70.400 C 67.600 71.474,67.420 72.464,67.200 72.600 C 66.980 72.736,66.800 73.726,66.800 74.800 C 66.800 75.874,66.620 76.864,66.400 77.000 C 66.180 77.136,66.000 78.126,66.000 79.200 C 66.000 80.274,65.820 81.264,65.600 81.400 C 65.380 81.536,65.200 82.616,65.200 83.800 C 65.200 84.984,65.020 86.064,64.800 86.200 C 64.580 86.336,64.400 87.236,64.400 88.200 C 64.400 89.164,64.220 90.064,64.000 90.200 C 63.780 90.336,63.600 91.326,63.600 92.400 C 63.600 93.474,63.420 94.464,63.200 94.600 C 62.980 94.736,62.800 95.726,62.800 96.800 C 62.800 97.874,62.620 98.864,62.400 99.000 C 62.180 99.136,62.000 100.126,62.000 101.200 C 62.000 102.274,61.820 103.264,61.600 103.400 C 61.380 103.536,61.200 104.526,61.200 105.600 C 61.200 106.674,61.020 107.664,60.800 107.800 C 60.580 107.936,60.400 108.926,60.400 110.000 C 60.400 111.074,60.220 112.064,60.000 112.200 C 59.780 112.336,59.600 113.326,59.600 114.400 C 59.600 115.474,59.420 116.464,59.200 116.600 C 58.678 116.923,58.678 124.277,59.200 124.600 C 59.423 124.738,59.600 126.596,59.600 128.800 C 59.600 131.004,59.777 132.862,60.000 133.000 C 60.225 133.139,60.400 135.063,60.400 137.400 C 60.400 139.737,60.575 141.661,60.800 141.800 C 61.023 141.938,61.200 143.796,61.200 146.000 C 61.200 148.204,61.377 150.062,61.600 150.200 C 61.825 150.339,62.000 152.244,62.000 154.544 C 62.000 156.797,62.168 158.811,62.374 159.020 C 62.580 159.229,62.850 161.245,62.974 163.500 C 63.098 165.755,63.302 169.445,63.426 171.700 C 63.550 173.955,63.820 175.971,64.026 176.180 C 64.232 176.389,64.400 177.323,64.400 178.256 C 64.400 179.189,64.580 180.064,64.800 180.200 C 65.020 180.336,65.200 180.797,65.200 181.224 C 65.200 181.651,65.380 182.000,65.600 182.000 C 65.820 182.000,66.000 182.234,66.000 182.520 C 66.000 183.256,66.941 185.193,67.300 185.197 C 67.465 185.199,67.600 185.560,67.600 186.000 C 67.600 186.440,67.736 186.800,67.902 186.800 C 68.069 186.800,68.409 187.295,68.658 187.900 C 68.907 188.505,69.355 189.585,69.653 190.300 C 69.951 191.015,70.331 191.600,70.498 191.600 C 70.664 191.600,70.800 191.960,70.800 192.400 C 70.800 192.840,70.980 193.200,71.200 193.200 C 71.420 193.200,71.600 193.560,71.600 194.000 C 71.600 194.440,71.780 194.800,72.000 194.800 C 72.220 194.800,72.400 195.160,72.400 195.600 C 72.400 196.040,72.580 196.400,72.800 196.400 C 73.020 196.400,73.200 196.760,73.200 197.200 C 73.200 197.640,73.380 198.000,73.600 198.000 C 73.820 198.000,74.000 198.360,74.000 198.800 C 74.000 199.240,74.180 199.600,74.400 199.600 C 74.620 199.600,74.800 199.960,74.800 200.400 C 74.800 200.840,74.980 201.200,75.200 201.200 C 75.420 201.200,75.600 201.560,75.600 202.000 C 75.600 202.440,75.780 202.800,76.000 202.800 C 76.220 202.800,76.400 203.160,76.400 203.600 C 76.400 204.040,76.580 204.400,76.800 204.400 C 77.020 204.400,77.200 204.760,77.200 205.200 C 77.200 205.640,77.380 206.000,77.600 206.000 C 77.820 206.000,78.000 206.360,78.000 206.800 C 78.000 207.240,78.135 207.601,78.300 207.603 C 78.659 207.607,79.600 209.544,79.600 210.280 C 79.600 210.566,79.735 210.801,79.900 210.803 C 80.251 210.807,81.200 212.737,81.200 213.446 C 81.200 213.714,81.340 213.993,81.511 214.067 C 81.683 214.140,86.998 224.550,93.322 237.200 C 99.647 249.850,105.071 260.650,105.376 261.200 C 105.681 261.750,106.396 263.190,106.967 264.400 C 107.537 265.610,108.256 267.050,108.565 267.600 C 108.874 268.150,110.497 271.390,112.172 274.800 C 113.846 278.210,115.467 281.450,115.773 282.000 C 116.079 282.550,116.796 283.990,117.367 285.200 C 117.937 286.410,118.657 287.850,118.967 288.400 C 119.276 288.950,119.996 290.390,120.567 291.600 C 121.137 292.810,121.852 294.250,122.156 294.800 C 122.459 295.350,123.243 296.880,123.897 298.200 C 124.551 299.520,125.454 301.320,125.904 302.200 C 126.355 303.080,127.191 304.790,127.763 306.000 C 128.335 307.210,129.057 308.650,129.367 309.200 C 129.676 309.750,130.396 311.190,130.967 312.400 C 131.537 313.610,132.300 315.140,132.662 315.800 C 133.841 317.947,134.000 318.375,134.000 319.395 C 134.000 319.948,134.180 320.400,134.400 320.400 C 134.620 320.400,134.800 321.019,134.800 321.776 C 134.800 322.533,134.980 323.264,135.200 323.400 C 135.420 323.536,135.600 324.076,135.600 324.600 C 135.600 325.124,135.780 325.664,136.000 325.800 C 136.220 325.936,136.400 326.566,136.400 327.200 C 136.400 327.834,136.580 328.464,136.800 328.600 C 137.020 328.736,137.200 329.276,137.200 329.800 C 137.200 330.324,137.380 330.864,137.600 331.000 C 137.820 331.136,138.000 331.766,138.000 332.400 C 138.000 333.034,138.180 333.664,138.400 333.800 C 138.620 333.936,138.800 334.566,138.800 335.200 C 138.800 335.834,138.980 336.464,139.200 336.600 C 139.420 336.736,139.600 337.366,139.600 338.000 C 139.600 338.634,139.780 339.264,140.000 339.400 C 140.220 339.536,140.400 340.076,140.400 340.600 C 140.400 341.124,140.580 341.664,140.800 341.800 C 141.020 341.936,141.200 342.566,141.200 343.200 C 141.200 343.834,141.380 344.464,141.600 344.600 C 141.820 344.736,142.000 345.366,142.000 346.000 C 142.000 346.634,142.180 347.264,142.400 347.400 C 142.620 347.536,142.800 348.076,142.800 348.600 C 142.800 349.124,142.980 349.664,143.200 349.800 C 143.420 349.936,143.600 350.656,143.600 351.400 C 143.600 352.144,143.780 352.864,144.000 353.000 C 144.220 353.136,144.400 353.676,144.400 354.200 C 144.400 354.724,144.580 355.264,144.800 355.400 C 145.020 355.536,145.200 356.166,145.200 356.800 C 145.200 357.434,145.380 358.064,145.600 358.200 C 145.820 358.336,146.000 358.876,146.000 359.400 C 146.000 359.924,146.180 360.464,146.400 360.600 C 146.620 360.736,146.800 361.199,146.800 361.629 C 146.800 362.567,147.486 363.827,148.673 365.069 C 149.153 365.571,150.052 366.661,150.671 367.491 C 151.291 368.321,152.250 369.450,152.803 370.000 C 153.355 370.550,154.616 371.988,155.604 373.194 C 159.130 377.503,161.608 379.600,163.171 379.600 C 163.601 379.600,164.064 379.780,164.200 380.000 C 164.336 380.220,164.889 380.400,165.429 380.400 C 166.442 380.400,166.951 380.594,169.000 381.764 C 169.660 382.141,170.515 382.549,170.900 382.671 C 171.285 382.793,171.600 383.052,171.600 383.247 C 171.600 383.441,171.836 383.600,172.125 383.600 C 172.413 383.600,172.998 383.915,173.425 384.300 C 173.851 384.685,174.695 385.255,175.300 385.568 C 175.905 385.880,176.400 386.285,176.400 386.468 C 176.400 386.650,176.636 386.800,176.925 386.800 C 177.213 386.800,177.836 387.160,178.308 387.600 C 178.780 388.040,179.274 388.400,179.405 388.400 C 179.536 388.400,180.704 389.120,182.000 390.000 C 183.296 390.880,184.464 391.600,184.595 391.600 C 184.726 391.600,185.220 391.960,185.692 392.400 C 186.164 392.840,186.787 393.200,187.075 393.200 C 187.364 393.200,187.600 393.347,187.600 393.526 C 187.600 394.402,190.959 395.600,193.414 395.600 C 194.810 395.600,196.064 395.780,196.200 396.000 C 196.522 396.522,203.478 396.522,203.800 396.000 C 203.936 395.780,205.190 395.600,206.586 395.600 C 209.041 395.600,212.400 394.402,212.400 393.526 C 212.400 393.347,212.636 393.200,212.925 393.200 C 213.213 393.200,213.836 392.840,214.308 392.400 C 214.780 391.960,215.274 391.600,215.405 391.600 C 215.536 391.600,216.704 390.880,218.000 390.000 C 219.296 389.120,220.546 388.400,220.778 388.400 C 221.010 388.400,221.200 388.250,221.200 388.068 C 221.200 387.885,221.695 387.480,222.300 387.168 C 222.905 386.855,223.749 386.285,224.175 385.900 C 224.602 385.515,225.104 385.200,225.292 385.200 C 225.480 385.200,226.020 384.840,226.492 384.400 C 226.964 383.960,227.587 383.600,227.875 383.600 C 228.164 383.600,228.400 383.448,228.400 383.263 C 228.400 383.077,229.255 382.518,230.300 382.019 C 231.345 381.520,232.513 380.952,232.895 380.756 C 233.277 380.560,234.031 380.400,234.571 380.400 C 235.111 380.400,235.664 380.220,235.800 380.000 C 235.936 379.780,236.399 379.600,236.829 379.600 C 238.356 379.600,242.256 376.222,245.141 372.400 C 245.722 371.630,246.649 370.550,247.200 370.000 C 247.751 369.450,248.709 368.321,249.329 367.491 C 249.948 366.661,250.847 365.571,251.327 365.069 C 252.514 363.827,253.200 362.567,253.200 361.629 C 253.200 361.199,253.380 360.736,253.600 360.600 C 253.820 360.464,254.000 359.924,254.000 359.400 C 254.000 358.876,254.180 358.336,254.400 358.200 C 254.620 358.064,254.800 357.434,254.800 356.800 C 254.800 356.166,254.980 355.536,255.200 355.400 C 255.420 355.264,255.600 354.724,255.600 354.200 C 255.600 353.676,255.780 353.136,256.000 353.000 C 256.220 352.864,256.400 352.144,256.400 351.400 C 256.400 350.656,256.580 349.936,256.800 349.800 C 257.020 349.664,257.200 349.124,257.200 348.600 C 257.200 348.076,257.380 347.536,257.600 347.400 C 257.820 347.264,258.000 346.634,258.000 346.000 C 258.000 345.366,258.180 344.736,258.400 344.600 C 258.620 344.464,258.800 343.834,258.800 343.200 C 258.800 342.566,258.980 341.936,259.200 341.800 C 259.420 341.664,259.600 341.034,259.600 340.400 C 259.600 339.766,259.780 339.136,260.000 339.000 C 260.220 338.864,260.400 338.324,260.400 337.800 C 260.400 337.276,260.580 336.736,260.800 336.600 C 261.020 336.464,261.200 335.834,261.200 335.200 C 261.200 334.566,261.380 333.936,261.600 333.800 C 261.820 333.664,262.000 333.034,262.000 332.400 C 262.000 331.766,262.180 331.136,262.400 331.000 C 262.620 330.864,262.800 330.324,262.800 329.800 C 262.800 329.276,262.980 328.736,263.200 328.600 C 263.420 328.464,263.600 327.834,263.600 327.200 C 263.600 326.566,263.780 325.936,264.000 325.800 C 264.220 325.664,264.400 325.034,264.400 324.400 C 264.400 323.766,264.580 323.136,264.800 323.000 C 265.020 322.864,265.200 322.234,265.200 321.600 C 265.200 320.966,265.380 320.336,265.600 320.200 C 265.820 320.064,266.000 319.601,266.000 319.171 C 266.000 318.370,266.191 317.890,267.338 315.800 C 267.700 315.140,268.463 313.610,269.033 312.400 C 269.604 311.190,270.324 309.750,270.633 309.200 C 270.943 308.650,271.665 307.210,272.237 306.000 C 272.809 304.790,273.645 303.080,274.096 302.200 C 274.546 301.320,275.449 299.520,276.103 298.200 C 276.757 296.880,277.541 295.350,277.844 294.800 C 278.148 294.250,278.865 292.810,279.437 291.600 C 280.009 290.390,280.820 288.725,281.239 287.900 C 281.657 287.075,282.383 285.635,282.850 284.700 C 283.318 283.765,283.944 282.550,284.242 282.000 C 284.540 281.450,286.154 278.210,287.828 274.800 C 289.503 271.390,291.126 268.150,291.435 267.600 C 291.744 267.050,292.463 265.610,293.033 264.400 C 293.604 263.190,294.320 261.750,294.625 261.200 C 294.930 260.650,298.374 253.810,302.278 246.000 C 306.182 238.190,309.517 231.740,309.688 231.667 C 309.860 231.593,310.000 231.295,310.000 231.004 C 310.000 230.363,311.680 227.053,312.100 226.867 C 312.265 226.793,312.399 226.523,312.397 226.267 C 312.394 225.655,316.499 217.440,316.895 217.267 C 317.063 217.193,317.200 216.914,317.200 216.646 C 317.200 215.937,318.149 214.007,318.500 214.003 C 318.665 214.001,318.800 213.640,318.800 213.200 C 318.800 212.760,318.980 212.400,319.200 212.400 C 319.420 212.400,319.600 212.040,319.600 211.600 C 319.600 211.160,319.780 210.800,320.000 210.800 C 320.220 210.800,320.400 210.566,320.400 210.280 C 320.400 209.544,321.341 207.607,321.700 207.603 C 321.865 207.601,322.000 207.240,322.000 206.800 C 322.000 206.360,322.180 206.000,322.400 206.000 C 322.620 206.000,322.800 205.640,322.800 205.200 C 322.800 204.760,322.980 204.400,323.200 204.400 C 323.420 204.400,323.600 204.040,323.600 203.600 C 323.600 203.160,323.780 202.800,324.000 202.800 C 324.220 202.800,324.400 202.440,324.400 202.000 C 324.400 201.560,324.580 201.200,324.800 201.200 C 325.020 201.200,325.200 200.840,325.200 200.400 C 325.200 199.960,325.380 199.600,325.600 199.600 C 325.820 199.600,326.000 199.240,326.000 198.800 C 326.000 198.360,326.180 198.000,326.400 198.000 C 326.620 198.000,326.800 197.640,326.800 197.200 C 326.800 196.760,326.980 196.400,327.200 196.400 C 327.420 196.400,327.600 196.040,327.600 195.600 C 327.600 195.160,327.780 194.800,328.000 194.800 C 328.220 194.800,328.400 194.440,328.400 194.000 C 328.400 193.560,328.580 193.200,328.800 193.200 C 329.020 193.200,329.200 192.840,329.200 192.400 C 329.200 191.960,329.336 191.600,329.502 191.600 C 329.669 191.600,330.049 191.015,330.347 190.300 C 330.645 189.585,331.093 188.505,331.342 187.900 C 331.591 187.295,331.931 186.800,332.098 186.800 C 332.264 186.800,332.400 186.440,332.400 186.000 C 332.400 185.560,332.535 185.199,332.700 185.197 C 333.059 185.193,334.000 183.256,334.000 182.520 C 334.000 182.234,334.180 182.000,334.400 182.000 C 334.620 182.000,334.800 181.651,334.800 181.224 C 334.800 180.797,334.980 180.336,335.200 180.200 C 335.420 180.064,335.600 179.189,335.600 178.256 C 335.600 177.323,335.768 176.389,335.974 176.180 C 336.180 175.971,336.450 173.955,336.574 171.700 C 336.698 169.445,336.902 165.755,337.026 163.500 C 337.150 161.245,337.420 159.229,337.626 159.020 C 337.832 158.811,338.000 156.797,338.000 154.544 C 338.000 152.244,338.175 150.339,338.400 150.200 C 338.623 150.062,338.800 148.204,338.800 146.000 C 338.800 143.796,338.977 141.938,339.200 141.800 C 339.425 141.661,339.600 139.756,339.600 137.456 C 339.600 135.203,339.768 133.189,339.974 132.980 C 340.180 132.771,340.448 130.800,340.569 128.600 C 340.691 126.400,340.896 122.912,341.025 120.850 C 341.178 118.405,341.110 116.950,340.830 116.670 C 340.593 116.433,340.400 115.387,340.400 114.344 C 340.400 113.301,340.220 112.336,340.000 112.200 C 339.780 112.064,339.600 111.074,339.600 110.000 C 339.600 108.926,339.420 107.936,339.200 107.800 C 338.980 107.664,338.800 106.764,338.800 105.800 C 338.800 104.836,338.620 103.936,338.400 103.800 C 338.180 103.664,338.000 102.584,338.000 101.400 C 338.000 100.216,337.820 99.136,337.600 99.000 C 337.380 98.864,337.200 97.874,337.200 96.800 C 337.200 95.726,337.020 94.736,336.800 94.600 C 336.580 94.464,336.400 93.474,336.400 92.400 C 336.400 91.326,336.220 90.336,336.000 90.200 C 335.780 90.064,335.600 89.164,335.600 88.200 C 335.600 87.236,335.420 86.336,335.200 86.200 C 334.980 86.064,334.800 85.074,334.800 84.000 C 334.800 82.926,334.620 81.936,334.400 81.800 C 334.180 81.664,334.000 80.584,334.000 79.400 C 334.000 78.216,333.820 77.136,333.600 77.000 C 333.380 76.864,333.200 75.874,333.200 74.800 C 333.200 73.726,333.020 72.736,332.800 72.600 C 332.580 72.464,332.400 71.474,332.400 70.400 C 332.400 69.326,332.220 68.336,332.000 68.200 C 331.780 68.064,331.600 67.074,331.600 66.000 C 331.600 64.926,331.420 63.936,331.200 63.800 C 330.980 63.664,330.800 62.674,330.800 61.600 C 330.800 60.526,330.620 59.536,330.400 59.400 C 330.180 59.264,330.000 58.274,330.000 57.200 C 330.000 56.126,329.820 55.136,329.600 55.000 C 329.380 54.864,329.200 54.340,329.200 53.836 C 329.200 53.331,328.705 52.387,328.100 51.738 C 327.495 51.089,326.014 49.397,324.808 47.979 C 323.602 46.560,322.159 44.950,321.600 44.400 C 321.041 43.850,319.598 42.235,318.392 40.812 C 317.186 39.388,315.390 37.408,314.400 36.412 C 313.410 35.415,311.791 33.610,310.801 32.400 C 309.812 31.190,308.372 29.566,307.601 28.791 C 306.831 28.015,305.214 26.215,304.008 24.791 C 302.802 23.366,301.362 21.747,300.808 21.194 C 300.254 20.641,298.814 19.021,297.608 17.594 C 296.402 16.167,294.959 14.550,294.400 14.000 C 293.841 13.450,292.398 11.841,291.192 10.424 C 284.442 2.492,282.487 1.952,277.665 6.687 C 277.371 6.976,276.471 7.702,275.665 8.302 C 274.859 8.901,273.909 9.708,273.553 10.096 C 273.197 10.483,272.729 10.800,272.512 10.800 C 272.296 10.800,271.597 11.297,270.959 11.904 C 270.322 12.512,269.170 13.448,268.400 13.985 C 267.630 14.523,266.709 15.286,266.353 15.681 C 265.997 16.076,265.547 16.404,265.353 16.409 C 265.159 16.414,264.280 17.068,263.400 17.862 C 262.520 18.656,261.170 19.776,260.400 20.351 C 259.630 20.925,258.910 21.495,258.800 21.617 C 258.690 21.739,257.970 22.271,257.200 22.800 C 256.430 23.329,255.530 24.049,255.200 24.400 C 254.870 24.751,253.970 25.476,253.200 26.012 C 249.766 28.400,245.873 32.289,242.673 36.526 C 242.053 37.347,241.153 38.420,240.673 38.912 C 240.193 39.403,239.308 40.464,238.706 41.268 C 238.104 42.073,237.384 42.971,237.106 43.265 C 236.828 43.559,236.093 44.479,235.473 45.309 C 234.853 46.139,233.953 47.220,233.473 47.712 C 232.993 48.203,232.093 49.283,231.473 50.112 C 230.853 50.940,229.953 52.020,229.473 52.512 C 228.993 53.003,228.125 54.034,227.545 54.803 C 226.965 55.571,226.090 56.650,225.600 57.200 C 225.110 57.750,224.237 58.830,223.659 59.600 C 223.081 60.370,222.335 61.270,222.000 61.600 C 221.665 61.930,220.876 62.892,220.246 63.738 L 219.101 65.276 215.451 64.995 C 210.729 64.632,189.275 64.631,184.570 64.994 C 181.059 65.265,180.920 65.244,180.319 64.337 C 179.977 63.822,179.181 62.856,178.549 62.191 C 177.917 61.526,176.925 60.356,176.345 59.591 C 175.765 58.826,174.890 57.750,174.400 57.200 C 173.910 56.650,173.035 55.571,172.455 54.803 C 171.875 54.034,171.007 53.003,170.527 52.512 C 170.047 52.020,169.149 50.939,168.532 50.109 C 167.914 49.279,167.135 48.330,166.800 48.000 C 166.465 47.670,165.719 46.770,165.141 46.000 C 164.563 45.230,163.690 44.150,163.200 43.600 C 162.710 43.050,161.835 41.971,161.255 41.203 C 160.675 40.434,159.807 39.403,159.327 38.912 C 158.847 38.420,157.947 37.347,157.327 36.526 C 154.230 32.424,150.179 28.381,146.796 26.014 C 146.028 25.477,145.130 24.751,144.800 24.400 C 144.470 24.049,143.570 23.329,142.800 22.800 C 142.030 22.271,141.310 21.739,141.200 21.617 C 141.090 21.495,140.341 20.904,139.535 20.304 C 138.729 19.703,137.829 18.978,137.535 18.693 C 137.241 18.407,136.370 17.738,135.600 17.206 C 134.830 16.673,133.930 15.951,133.600 15.600 C 133.270 15.249,132.370 14.526,131.600 13.994 C 130.830 13.461,129.660 12.526,129.000 11.915 C 128.340 11.304,127.641 10.803,127.447 10.802 C 127.253 10.801,126.803 10.483,126.447 10.096 C 126.091 9.708,125.141 8.901,124.335 8.302 C 123.529 7.702,122.629 6.976,122.335 6.687 C 119.699 4.099,116.815 3.115,114.928 4.162 M120.291 14.944 C 121.847 16.123,123.814 17.656,124.660 18.351 C 125.507 19.045,128.720 21.593,131.800 24.013 C 134.880 26.432,138.300 29.130,139.400 30.007 C 140.500 30.884,142.591 32.546,144.046 33.701 C 145.694 35.008,149.190 38.818,153.315 43.800 C 156.957 48.200,163.300 55.850,167.410 60.800 C 171.519 65.750,175.093 70.097,175.351 70.460 C 176.750 72.430,178.616 72.937,183.132 72.573 C 188.653 72.127,211.347 72.127,216.868 72.573 C 221.477 72.944,223.263 72.430,224.753 70.303 C 225.068 69.853,226.063 68.639,226.963 67.605 C 227.863 66.571,231.300 62.446,234.600 58.438 C 251.004 38.516,253.429 35.707,255.956 33.701 C 257.410 32.546,259.500 30.885,260.600 30.009 C 263.441 27.746,272.753 20.404,274.408 19.122 C 275.174 18.529,277.309 16.864,279.154 15.422 C 283.223 12.241,282.575 12.213,285.594 15.700 C 286.975 17.295,289.026 19.610,290.153 20.845 C 291.279 22.079,294.090 25.214,296.400 27.810 C 300.313 32.209,305.897 38.445,316.600 50.370 C 321.543 55.877,322.180 56.875,322.751 60.000 C 322.971 61.210,323.354 63.280,323.600 64.600 C 323.846 65.920,324.217 67.945,324.424 69.100 C 324.631 70.255,324.980 72.190,325.200 73.400 C 325.420 74.610,325.780 76.590,326.000 77.800 C 326.220 79.010,326.591 81.035,326.824 82.300 C 327.057 83.565,327.417 85.545,327.624 86.700 C 327.831 87.855,328.169 89.745,328.376 90.900 C 328.583 92.055,328.943 94.035,329.176 95.300 C 329.409 96.565,329.780 98.590,330.000 99.800 C 330.220 101.010,330.580 102.990,330.800 104.200 C 331.020 105.410,331.391 107.435,331.624 108.700 C 331.857 109.965,332.217 111.945,332.424 113.100 C 332.631 114.255,333.006 116.177,333.257 117.372 C 333.534 118.688,333.603 120.618,333.431 122.272 C 333.276 123.772,332.980 126.845,332.774 129.100 C 332.568 131.355,332.227 135.045,332.017 137.300 C 331.806 139.555,331.446 143.425,331.217 145.900 C 330.987 148.375,330.613 152.425,330.383 154.900 C 330.154 157.375,329.798 161.200,329.592 163.400 C 329.385 165.600,329.055 169.380,328.857 171.800 C 328.387 177.571,334.512 164.754,287.176 259.015 C 272.036 289.163,259.387 314.633,259.067 315.615 C 258.371 317.752,256.968 322.379,256.343 324.600 C 256.095 325.480,255.581 327.190,255.200 328.400 C 254.819 329.610,254.282 331.410,254.007 332.400 C 253.732 333.390,253.367 334.650,253.195 335.200 C 253.024 335.750,252.492 337.550,252.014 339.200 C 251.536 340.850,250.996 342.650,250.814 343.200 C 250.632 343.750,250.092 345.550,249.614 347.200 C 249.136 348.850,248.599 350.650,248.419 351.200 C 248.240 351.750,247.866 353.010,247.589 354.000 C 246.152 359.130,245.714 360.119,244.130 361.800 C 243.715 362.240,241.694 364.546,239.637 366.924 C 235.300 371.941,235.204 372.013,231.050 373.401 C 229.317 373.980,227.157 374.933,226.250 375.519 C 225.342 376.104,224.281 376.767,223.892 376.992 C 223.503 377.216,220.040 379.470,216.198 382.000 C 205.977 388.730,207.622 388.103,200.143 388.119 C 192.503 388.135,193.672 388.571,183.800 382.015 C 173.784 375.363,172.365 374.542,168.872 373.375 C 164.728 371.990,164.774 372.028,159.194 365.577 C 154.219 359.826,153.867 359.225,152.399 354.000 C 152.120 353.010,151.581 351.210,151.200 350.000 C 150.819 348.790,150.305 347.080,150.057 346.200 C 149.456 344.064,148.019 339.246,147.611 338.000 C 147.430 337.450,146.899 335.650,146.429 334.000 C 145.604 331.103,144.234 326.466,143.593 324.400 C 143.423 323.850,142.887 322.050,142.403 320.400 C 141.918 318.750,141.263 316.609,140.946 315.643 C 140.630 314.676,124.860 282.983,105.902 245.212 L 71.433 176.539 71.124 172.170 C 70.954 169.766,70.639 165.910,70.424 163.600 C 70.209 161.290,69.848 157.420,69.622 155.000 C 69.397 152.580,69.022 148.530,68.789 146.000 C 68.557 143.470,68.194 139.555,67.983 137.300 C 67.773 135.045,67.432 131.355,67.226 129.100 C 67.020 126.845,66.724 123.772,66.569 122.272 C 66.392 120.569,66.467 118.689,66.767 117.272 C 67.032 116.022,67.417 114.055,67.624 112.900 C 68.103 110.226,68.684 107.028,69.224 104.100 C 69.457 102.835,69.828 100.810,70.048 99.600 C 70.268 98.390,70.628 96.410,70.848 95.200 C 71.068 93.990,71.428 92.010,71.648 90.800 C 71.868 89.590,72.217 87.655,72.424 86.500 C 72.631 85.345,72.991 83.365,73.224 82.100 C 73.457 80.835,73.828 78.810,74.048 77.600 C 74.268 76.390,74.628 74.410,74.848 73.200 C 75.068 71.990,75.406 70.100,75.600 69.000 C 75.934 67.105,76.241 65.419,77.226 60.100 C 77.460 58.835,77.955 57.231,78.326 56.536 C 78.987 55.297,82.272 51.538,95.426 36.972 C 97.200 35.007,99.354 32.590,100.212 31.600 C 101.071 30.610,102.680 28.803,103.787 27.585 C 107.732 23.245,111.918 18.557,114.399 15.700 C 117.401 12.243,116.823 12.317,120.291 14.944 M112.628 50.547 C 110.886 52.191,110.877 52.471,112.462 56.015 C 113.597 58.554,113.907 58.918,115.562 59.658 C 119.174 61.273,128.226 66.451,129.645 67.714 C 133.135 70.819,139.686 76.465,143.384 79.556 C 147.798 83.244,149.812 85.295,156.490 92.900 C 162.984 100.296,163.083 100.010,157.769 89.199 L 153.938 81.406 148.869 76.270 C 145.762 73.122,141.710 69.572,138.400 67.098 C 135.430 64.878,131.724 61.968,130.164 60.631 C 128.604 59.294,125.714 56.819,123.740 55.132 C 117.029 49.393,114.819 48.482,112.628 50.547 M282.800 50.233 C 281.145 51.128,277.037 54.420,269.823 60.631 C 268.270 61.968,264.570 64.878,261.600 67.098 C 258.290 69.572,254.238 73.122,251.131 76.270 L 246.062 81.406 242.231 89.199 C 236.845 100.157,236.916 100.253,244.300 92.000 C 251.553 83.893,252.467 83.004,260.947 75.800 C 265.090 72.280,269.047 68.888,269.740 68.263 C 271.753 66.447,274.636 64.686,280.614 61.622 L 286.200 58.759 287.484 56.080 C 289.119 52.671,289.109 52.186,287.372 50.547 C 285.696 48.967,285.203 48.933,282.800 50.233 M96.235 161.261 C 96.116 161.997,95.827 167.280,95.594 173.000 C 95.360 178.720,95.006 186.910,94.808 191.200 C 94.385 200.357,93.846 198.507,100.575 211.000 C 102.945 215.400,106.080 221.222,107.542 223.939 L 110.200 228.878 118.763 236.739 C 123.472 241.062,127.524 244.780,127.767 245.000 C 138.417 254.643,144.683 260.784,150.821 267.593 C 152.899 269.899,154.960 272.184,155.400 272.671 C 159.363 277.051,162.264 272.712,160.396 265.200 C 159.923 263.302,159.359 260.683,158.800 257.800 C 158.544 256.480,158.005 253.870,157.602 252.000 C 157.199 250.130,156.745 247.970,156.594 247.200 C 156.442 246.430,156.156 245.080,155.958 244.200 C 155.760 243.320,155.421 241.700,155.204 240.600 C 154.988 239.500,154.466 236.980,154.045 235.000 C 151.772 224.302,151.213 221.605,150.570 218.225 C 150.215 216.358,147.633 213.601,141.600 208.649 C 140.830 208.017,139.030 206.471,137.600 205.214 C 132.656 200.867,125.377 194.562,119.600 189.621 C 113.175 184.126,109.043 180.068,107.745 177.977 C 107.274 177.220,104.868 173.143,102.396 168.918 C 97.224 160.074,96.559 159.249,96.235 161.261 M302.551 160.884 C 302.100 161.388,299.791 165.130,297.418 169.200 C 295.046 173.270,292.721 177.220,292.253 177.977 C 290.961 180.063,286.834 184.118,280.400 189.623 C 277.210 192.352,271.000 197.715,266.600 201.541 C 262.200 205.368,257.520 209.411,256.200 210.526 C 251.660 214.363,249.751 216.533,249.430 218.225 C 248.907 220.973,248.517 222.888,247.600 227.200 C 247.109 229.510,246.568 232.120,246.397 233.000 C 246.227 233.880,245.868 235.590,245.600 236.800 C 245.332 238.010,244.975 239.720,244.808 240.600 C 244.225 243.661,243.167 248.616,242.560 251.126 C 242.224 252.516,241.764 254.676,241.538 255.926 C 241.042 258.666,240.751 260.141,239.647 265.529 C 238.676 270.265,238.625 271.178,239.255 272.561 C 240.202 274.640,243.199 274.527,244.966 272.345 C 250.292 265.768,260.221 255.909,276.400 241.130 L 289.800 228.891 292.260 224.345 C 293.613 221.845,295.585 218.180,296.643 216.200 C 297.700 214.220,299.347 211.160,300.304 209.400 C 301.261 207.640,302.837 204.580,303.807 202.600 L 305.571 199.000 305.208 191.400 C 305.008 187.220,304.630 178.760,304.368 172.600 C 303.831 159.961,303.764 159.527,302.551 160.884 " stroke="none" fill="#070606" fill-rule="evenodd"></path><path id="path1" d="M115.970 13.900 L 115.000 15.000 116.200 14.000 C 116.860 13.450,117.475 12.955,117.567 12.900 C 117.658 12.845,117.555 12.800,117.336 12.800 C 117.118 12.800,116.503 13.295,115.970 13.900 M282.433 12.900 C 282.525 12.955,283.140 13.450,283.800 14.000 L 285.000 15.000 284.030 13.900 C 283.497 13.295,282.882 12.800,282.664 12.800 C 282.445 12.800,282.342 12.845,282.433 12.900 M286.000 16.600 C 286.746 17.370,287.447 18.000,287.557 18.000 C 287.667 18.000,287.146 17.370,286.400 16.600 C 285.654 15.830,284.953 15.200,284.843 15.200 C 284.733 15.200,285.254 15.830,286.000 16.600 M113.375 16.900 L 112.200 18.200 113.500 17.025 C 114.215 16.379,114.800 15.794,114.800 15.725 C 114.800 15.416,114.470 15.688,113.375 16.900 M121.600 16.125 C 121.600 16.224,122.261 16.809,123.068 17.425 C 123.876 18.041,124.411 18.341,124.256 18.091 C 123.940 17.579,121.600 15.847,121.600 16.125 M110.181 20.500 L 108.600 22.200 110.300 20.619 C 111.235 19.749,112.000 18.984,112.000 18.919 C 112.000 18.616,111.652 18.919,110.181 20.500 M289.400 20.400 C 290.259 21.280,291.052 22.000,291.162 22.000 C 291.272 22.000,290.659 21.280,289.800 20.400 C 288.941 19.520,288.148 18.800,288.038 18.800 C 287.928 18.800,288.541 19.520,289.400 20.400 M106.575 24.500 L 105.400 25.800 106.700 24.625 C 107.415 23.979,108.000 23.394,108.000 23.325 C 108.000 23.016,107.670 23.288,106.575 24.500 M296.200 28.000 C 297.283 29.100,298.260 30.000,298.370 30.000 C 298.480 30.000,297.683 29.100,296.600 28.000 C 295.517 26.900,294.540 26.000,294.430 26.000 C 294.320 26.000,295.117 26.900,296.200 28.000 M102.981 28.500 L 101.400 30.200 103.100 28.619 C 104.035 27.749,104.800 26.984,104.800 26.919 C 104.800 26.616,104.452 26.919,102.981 28.500 M100.175 31.700 L 99.000 33.000 100.300 31.825 C 101.512 30.730,101.784 30.400,101.475 30.400 C 101.406 30.400,100.821 30.985,100.175 31.700 M298.400 30.525 C 298.400 30.594,298.985 31.179,299.700 31.825 L 301.000 33.000 299.825 31.700 C 298.730 30.488,298.400 30.216,298.400 30.525 M96.581 35.700 L 95.000 37.400 96.700 35.819 C 98.281 34.348,98.584 34.000,98.281 34.000 C 98.216 34.000,97.451 34.765,96.581 35.700 M303.000 35.600 C 303.859 36.480,304.652 37.200,304.762 37.200 C 304.872 37.200,304.259 36.480,303.400 35.600 C 302.541 34.720,301.748 34.000,301.638 34.000 C 301.528 34.000,302.141 34.720,303.000 35.600 M306.400 39.400 C 307.146 40.170,307.847 40.800,307.957 40.800 C 308.067 40.800,307.546 40.170,306.800 39.400 C 306.054 38.630,305.353 38.000,305.243 38.000 C 305.133 38.000,305.654 38.630,306.400 39.400 M92.975 39.700 L 91.800 41.000 93.100 39.825 C 93.815 39.179,94.400 38.594,94.400 38.525 C 94.400 38.216,94.070 38.488,92.975 39.700 M309.800 43.200 C 310.883 44.300,311.860 45.200,311.970 45.200 C 312.080 45.200,311.283 44.300,310.200 43.200 C 309.117 42.100,308.140 41.200,308.030 41.200 C 307.920 41.200,308.717 42.100,309.800 43.200 M89.381 43.700 L 87.800 45.400 89.500 43.819 C 91.081 42.348,91.384 42.000,91.081 42.000 C 91.016 42.000,90.251 42.765,89.381 43.700 M152.800 43.725 C 152.800 43.794,153.385 44.379,154.100 45.025 L 155.400 46.200 154.225 44.900 C 153.130 43.688,152.800 43.416,152.800 43.725 M245.775 44.900 L 244.600 46.200 245.900 45.025 C 246.615 44.379,247.200 43.794,247.200 43.725 C 247.200 43.416,246.870 43.688,245.775 44.900 M86.575 46.900 L 85.400 48.200 86.700 47.025 C 87.912 45.930,88.184 45.600,87.875 45.600 C 87.806 45.600,87.221 46.185,86.575 46.900 M312.000 45.725 C 312.000 45.794,312.585 46.379,313.300 47.025 L 314.600 48.200 313.425 46.900 C 312.330 45.688,312.000 45.416,312.000 45.725 M156.800 48.525 C 156.800 48.594,157.385 49.179,158.100 49.825 L 159.400 51.000 158.225 49.700 C 157.130 48.488,156.800 48.216,156.800 48.525 M241.955 49.500 C 240.681 50.908,239.856 52.000,240.066 52.000 C 240.157 52.000,240.908 51.190,241.735 50.200 C 243.387 48.224,243.535 47.753,241.955 49.500 M112.206 50.446 C 110.675 52.141,110.467 53.891,111.666 54.988 C 111.995 55.288,112.034 55.183,111.807 54.600 C 110.990 52.494,111.085 52.003,112.580 50.593 C 114.824 48.477,116.986 49.356,123.740 55.132 C 125.714 56.819,128.604 59.294,130.164 60.631 C 131.724 61.968,135.430 64.881,138.400 67.104 C 147.501 73.918,153.075 79.899,156.431 86.452 C 157.937 89.393,159.167 91.620,159.164 91.400 C 159.161 91.180,158.043 88.804,156.679 86.121 C 153.536 79.935,147.169 73.153,138.401 66.649 C 135.430 64.445,131.636 61.463,129.968 60.021 C 122.480 53.549,119.544 51.156,118.125 50.369 C 117.286 49.905,116.429 49.362,116.220 49.162 C 115.307 48.292,113.682 48.812,112.206 50.446 M283.780 49.162 C 283.571 49.362,282.714 49.905,281.875 50.369 C 280.447 51.160,277.261 53.760,270.032 60.030 C 268.364 61.477,264.570 64.463,261.600 66.666 C 252.796 73.196,246.453 79.944,243.321 86.116 C 241.957 88.802,240.839 91.180,240.836 91.400 C 240.833 91.620,242.063 89.393,243.569 86.452 C 246.925 79.899,252.499 73.918,261.600 67.104 C 264.570 64.881,268.270 61.968,269.823 60.631 C 283.494 48.860,284.795 48.118,287.420 50.593 C 288.915 52.003,289.010 52.494,288.193 54.600 C 287.966 55.183,288.005 55.288,288.334 54.988 C 288.582 54.761,288.897 54.016,289.033 53.334 C 289.512 50.939,285.368 47.648,283.780 49.162 M82.981 50.900 L 81.400 52.600 83.100 51.019 C 84.035 50.149,84.800 49.384,84.800 49.319 C 84.800 49.016,84.452 49.319,82.981 50.900 M316.600 50.800 C 317.459 51.680,318.252 52.400,318.362 52.400 C 318.472 52.400,317.859 51.680,317.000 50.800 C 316.141 49.920,315.348 49.200,315.238 49.200 C 315.128 49.200,315.741 49.920,316.600 50.800 M79.775 54.500 L 78.600 55.800 79.900 54.625 C 81.112 53.530,81.384 53.200,81.075 53.200 C 81.006 53.200,80.421 53.785,79.775 54.500 M318.800 53.325 C 318.800 53.394,319.385 53.979,320.100 54.625 L 321.400 55.800 320.225 54.500 C 319.130 53.288,318.800 53.016,318.800 53.325 M112.000 55.753 C 112.000 56.182,113.190 58.400,113.421 58.400 C 113.531 58.400,113.323 57.815,112.959 57.100 C 112.217 55.640,112.000 55.336,112.000 55.753 M287.078 57.005 C 286.712 57.772,286.495 58.400,286.596 58.400 C 286.870 58.400,288.084 55.951,287.901 55.768 C 287.814 55.681,287.444 56.238,287.078 57.005 M164.000 57.325 C 164.000 57.394,164.585 57.979,165.300 58.625 L 166.600 59.800 165.425 58.500 C 164.330 57.288,164.000 57.016,164.000 57.325 M234.575 58.500 L 233.400 59.800 234.700 58.625 C 235.415 57.979,236.000 57.394,236.000 57.325 C 236.000 57.016,235.670 57.288,234.575 58.500 M77.029 60.629 C 76.881 61.215,76.838 61.772,76.932 61.866 C 77.027 61.960,77.224 61.558,77.371 60.971 C 77.519 60.385,77.562 59.828,77.468 59.734 C 77.373 59.640,77.176 60.042,77.029 60.629 M322.456 60.000 C 322.456 60.330,322.611 60.960,322.800 61.400 C 323.017 61.904,323.144 61.978,323.144 61.600 C 323.144 61.270,322.989 60.640,322.800 60.200 C 322.583 59.696,322.456 59.622,322.456 60.000 M116.000 60.090 C 116.110 60.209,117.640 61.075,119.400 62.015 C 126.090 65.585,128.158 66.966,132.736 70.924 C 135.330 73.166,138.509 75.900,139.801 77.000 C 147.614 83.651,148.936 84.981,159.588 96.900 C 160.962 98.438,162.000 98.839,162.000 97.833 C 162.000 97.153,160.513 93.600,160.228 93.600 C 160.118 93.600,160.382 94.425,160.814 95.433 C 162.495 99.354,161.799 98.946,156.490 92.900 C 149.812 85.295,147.798 83.244,143.384 79.556 C 139.686 76.465,133.135 70.819,129.645 67.714 C 127.832 66.100,114.861 58.853,116.000 60.090 M278.200 62.845 C 273.061 65.638,271.743 66.496,269.400 68.576 C 268.740 69.161,264.873 72.466,260.807 75.920 C 252.474 82.998,251.542 83.906,244.300 92.000 C 238.014 99.026,237.497 99.373,239.186 95.433 C 239.618 94.425,239.882 93.600,239.772 93.600 C 239.662 93.600,239.218 94.425,238.786 95.433 C 237.070 99.436,238.168 99.390,241.827 95.304 C 249.353 86.901,253.050 83.076,256.267 80.366 C 258.202 78.735,262.512 75.036,265.844 72.146 C 271.688 67.078,273.700 65.696,280.600 62.015 C 284.040 60.179,284.330 59.995,283.767 60.009 C 283.565 60.014,281.060 61.290,278.200 62.845 M110.928 62.585 C 109.708 63.115,108.820 64.306,100.813 76.149 C 100.051 77.277,96.917 81.890,93.850 86.400 C 85.676 98.421,86.148 96.744,85.785 115.000 C 85.701 119.180,85.451 125.480,85.228 129.000 C 85.006 132.520,84.720 137.695,84.593 140.500 L 84.361 145.600 85.310 145.600 C 86.400 145.600,87.246 144.747,99.197 131.600 C 103.696 126.650,108.299 121.610,109.424 120.400 C 110.550 119.190,112.210 117.381,113.113 116.380 C 114.016 115.378,115.260 114.302,115.878 113.987 C 116.495 113.672,117.630 113.031,118.400 112.563 C 119.170 112.094,121.330 110.815,123.200 109.722 C 131.098 105.103,136.900 101.686,141.523 98.932 C 144.231 97.320,146.544 96.000,146.662 96.000 C 149.896 96.000,150.640 91.154,147.715 89.141 C 146.732 88.465,139.780 82.877,132.264 76.722 C 112.572 60.595,113.733 61.364,110.928 62.585 M168.000 62.125 C 168.000 62.194,168.585 62.779,169.300 63.425 L 170.600 64.600 169.425 63.300 C 168.330 62.088,168.000 61.816,168.000 62.125 M230.575 63.300 L 229.400 64.600 230.700 63.425 C 231.415 62.779,232.000 62.194,232.000 62.125 C 232.000 61.816,231.670 62.088,230.575 63.300 M284.084 63.500 C 281.968 65.090,267.540 76.798,267.200 77.200 C 266.723 77.766,254.540 87.534,252.683 88.839 C 249.632 90.985,249.355 93.317,251.934 95.153 C 252.588 95.619,253.220 96.000,253.338 96.000 C 253.456 96.000,255.769 97.320,258.477 98.932 C 263.100 101.686,268.902 105.103,276.800 109.722 C 278.670 110.815,280.830 112.094,281.600 112.563 C 282.370 113.031,283.506 113.673,284.125 113.989 C 284.744 114.304,286.814 116.281,288.725 118.381 C 290.635 120.481,292.294 122.290,292.411 122.400 C 292.527 122.510,296.301 126.650,300.797 131.600 C 312.645 144.644,313.594 145.600,314.690 145.600 L 315.639 145.600 315.407 140.500 C 315.280 137.695,314.994 132.520,314.772 129.000 C 314.549 125.480,314.299 119.180,314.215 115.000 C 313.852 96.744,314.324 98.421,306.150 86.400 C 303.083 81.890,299.949 77.277,299.187 76.149 C 288.544 60.407,288.381 60.271,284.084 63.500 M76.200 65.200 C 76.048 65.891,76.007 66.541,76.109 66.642 C 76.211 66.744,76.409 66.253,76.550 65.550 C 76.691 64.847,76.731 64.198,76.641 64.108 C 76.550 64.017,76.352 64.509,76.200 65.200 M323.268 64.400 C 323.288 65.439,323.918 67.146,323.932 66.200 C 323.938 65.760,323.789 65.040,323.600 64.600 C 323.389 64.110,323.261 64.032,323.268 64.400 M173.574 68.700 C 174.537 69.855,175.402 70.800,175.496 70.800 C 175.768 70.800,173.304 67.782,172.526 67.162 C 172.139 66.853,172.610 67.545,173.574 68.700 M226.763 67.900 C 225.050 69.811,224.269 70.800,224.475 70.800 C 224.585 70.800,225.434 69.900,226.361 68.800 C 228.145 66.685,228.435 66.036,226.763 67.900 M75.400 69.600 C 75.248 70.291,75.207 70.941,75.309 71.042 C 75.411 71.144,75.609 70.653,75.750 69.950 C 75.891 69.247,75.931 68.598,75.841 68.508 C 75.750 68.417,75.552 68.909,75.400 69.600 M324.056 68.800 C 324.056 69.130,324.211 69.760,324.400 70.200 C 324.617 70.704,324.744 70.778,324.744 70.400 C 324.744 70.070,324.589 69.440,324.400 69.000 C 324.183 68.496,324.056 68.422,324.056 68.800 M189.715 72.296 C 190.988 72.376,192.968 72.375,194.115 72.294 C 195.262 72.214,194.220 72.149,191.800 72.150 C 189.380 72.151,188.442 72.216,189.715 72.296 M206.300 72.295 C 207.455 72.376,209.345 72.376,210.500 72.295 C 211.655 72.214,210.710 72.148,208.400 72.148 C 206.090 72.148,205.145 72.214,206.300 72.295 M185.300 72.676 C 185.685 72.776,186.315 72.776,186.700 72.676 C 187.085 72.575,186.770 72.493,186.000 72.493 C 185.230 72.493,184.915 72.575,185.300 72.676 M74.600 74.000 C 74.448 74.691,74.407 75.341,74.509 75.442 C 74.611 75.544,74.809 75.053,74.950 74.350 C 75.091 73.647,75.131 72.998,75.041 72.908 C 74.950 72.817,74.752 73.309,74.600 74.000 M324.868 73.200 C 324.888 74.239,325.518 75.946,325.532 75.000 C 325.538 74.560,325.389 73.840,325.200 73.400 C 324.989 72.910,324.861 72.832,324.868 73.200 M73.800 78.400 C 73.648 79.091,73.607 79.741,73.709 79.842 C 73.811 79.944,74.009 79.453,74.150 78.750 C 74.291 78.047,74.331 77.398,74.241 77.308 C 74.150 77.217,73.952 77.709,73.800 78.400 M325.668 77.600 C 325.688 78.639,326.318 80.346,326.332 79.400 C 326.338 78.960,326.189 78.240,326.000 77.800 C 325.789 77.310,325.661 77.232,325.668 77.600 M73.029 82.629 C 72.881 83.215,72.838 83.772,72.932 83.866 C 73.027 83.960,73.224 83.558,73.371 82.971 C 73.519 82.385,73.562 81.828,73.468 81.734 C 73.373 81.640,73.176 82.042,73.029 82.629 M326.456 82.000 C 326.456 82.330,326.611 82.960,326.800 83.400 C 327.017 83.904,327.144 83.978,327.144 83.600 C 327.144 83.270,326.989 82.640,326.800 82.200 C 326.583 81.696,326.456 81.622,326.456 82.000 M72.200 87.200 C 72.048 87.891,72.007 88.541,72.109 88.642 C 72.211 88.744,72.409 88.253,72.550 87.550 C 72.691 86.847,72.731 86.198,72.641 86.108 C 72.550 86.017,72.352 86.509,72.200 87.200 M327.268 86.400 C 327.288 87.439,327.918 89.146,327.932 88.200 C 327.938 87.760,327.789 87.040,327.600 86.600 C 327.389 86.110,327.261 86.032,327.268 86.400 M71.429 91.429 C 71.281 92.015,71.238 92.572,71.332 92.666 C 71.427 92.760,71.624 92.358,71.771 91.771 C 71.919 91.185,71.962 90.628,71.868 90.534 C 71.773 90.440,71.576 90.842,71.429 91.429 M328.056 90.800 C 328.056 91.130,328.211 91.760,328.400 92.200 C 328.617 92.704,328.744 92.778,328.744 92.400 C 328.744 92.070,328.589 91.440,328.400 91.000 C 328.183 90.496,328.056 90.422,328.056 90.800 M70.629 95.829 C 70.481 96.415,70.438 96.972,70.532 97.066 C 70.627 97.160,70.824 96.758,70.971 96.171 C 71.119 95.585,71.162 95.028,71.068 94.934 C 70.973 94.840,70.776 95.242,70.629 95.829 M328.856 95.200 C 328.856 95.530,329.011 96.160,329.200 96.600 C 329.417 97.104,329.544 97.178,329.544 96.800 C 329.544 96.470,329.389 95.840,329.200 95.400 C 328.983 94.896,328.856 94.822,328.856 95.200 M69.829 100.229 C 69.681 100.815,69.638 101.372,69.732 101.466 C 69.827 101.560,70.024 101.158,70.171 100.571 C 70.319 99.985,70.362 99.428,70.268 99.334 C 70.173 99.240,69.976 99.642,69.829 100.229 M329.656 99.600 C 329.656 99.930,329.811 100.560,330.000 101.000 C 330.217 101.504,330.344 101.578,330.344 101.200 C 330.344 100.870,330.189 100.240,330.000 99.800 C 329.783 99.296,329.656 99.222,329.656 99.600 M69.029 104.629 C 68.881 105.215,68.838 105.772,68.932 105.866 C 69.027 105.960,69.224 105.558,69.371 104.971 C 69.519 104.385,69.562 103.828,69.468 103.734 C 69.373 103.640,69.176 104.042,69.029 104.629 M330.468 104.000 C 330.488 105.039,331.118 106.746,331.132 105.800 C 331.138 105.360,330.989 104.640,330.800 104.200 C 330.589 103.710,330.461 103.632,330.468 104.000 M68.200 109.200 C 68.048 109.891,68.007 110.541,68.109 110.642 C 68.211 110.744,68.409 110.253,68.550 109.550 C 68.883 107.883,68.560 107.560,68.200 109.200 M331.256 108.400 C 331.256 108.730,331.411 109.360,331.600 109.800 C 331.817 110.304,331.944 110.378,331.944 110.000 C 331.944 109.670,331.789 109.040,331.600 108.600 C 331.383 108.096,331.256 108.022,331.256 108.400 M67.400 113.600 C 67.248 114.291,67.207 114.941,67.309 115.042 C 67.411 115.144,67.609 114.653,67.750 113.950 C 68.083 112.283,67.760 111.960,67.400 113.600 M332.056 112.800 C 332.056 113.130,332.211 113.760,332.400 114.200 C 332.617 114.704,332.744 114.778,332.744 114.400 C 332.744 114.070,332.589 113.440,332.400 113.000 C 332.183 112.496,332.056 112.422,332.056 112.800 M66.656 117.684 C 66.521 118.188,66.436 119.770,66.467 121.200 C 66.524 123.800,66.524 123.800,66.798 120.400 C 67.088 116.804,67.056 116.193,66.656 117.684 M333.088 119.800 C 333.314 123.958,333.536 124.546,333.540 121.000 C 333.542 119.460,333.402 117.840,333.228 117.400 C 333.054 116.957,332.991 118.027,333.088 119.800 M332.514 130.600 C 332.517 131.700,332.595 132.103,332.687 131.495 C 332.779 130.886,332.777 129.986,332.682 129.495 C 332.587 129.003,332.511 129.500,332.514 130.600 M67.309 130.800 C 67.309 131.790,67.387 132.195,67.482 131.700 C 67.578 131.205,67.578 130.395,67.482 129.900 C 67.387 129.405,67.309 129.810,67.309 130.800 M68.109 139.200 C 68.109 140.190,68.187 140.595,68.282 140.100 C 68.378 139.605,68.378 138.795,68.282 138.300 C 68.187 137.805,68.109 138.210,68.109 139.200 M331.709 139.200 C 331.709 140.190,331.787 140.595,331.882 140.100 C 331.978 139.605,331.978 138.795,331.882 138.300 C 331.787 137.805,331.709 138.210,331.709 139.200 M98.844 143.500 C 98.399 145.217,97.603 153.334,97.594 156.245 C 97.588 158.234,97.183 159.376,96.572 159.134 C 95.926 158.879,95.629 161.840,95.443 170.400 L 95.256 179.000 95.627 170.800 C 96.097 160.386,96.202 159.697,97.177 160.579 C 97.576 160.941,99.925 164.693,102.396 168.918 C 104.868 173.143,107.274 177.220,107.745 177.977 C 109.043 180.068,113.175 184.126,119.600 189.621 C 125.377 194.562,132.656 200.867,137.600 205.214 C 139.030 206.471,140.830 208.017,141.600 208.649 C 147.633 213.601,150.215 216.358,150.570 218.225 C 151.213 221.605,151.772 224.302,154.045 235.000 C 154.466 236.980,154.988 239.500,155.204 240.600 C 155.421 241.700,155.760 243.320,155.958 244.200 C 156.156 245.080,156.442 246.430,156.594 247.200 C 156.745 247.970,157.199 250.130,157.602 252.000 C 158.005 253.870,158.544 256.480,158.800 257.800 C 159.359 260.683,159.923 263.302,160.396 265.200 C 161.577 269.948,161.246 273.066,159.472 273.925 C 158.992 274.156,158.834 274.358,159.119 274.373 C 160.135 274.426,161.495 272.422,161.750 270.496 C 161.888 269.453,162.174 267.430,162.387 266.000 C 162.599 264.570,162.965 262.050,163.200 260.400 C 163.435 258.750,163.803 256.230,164.018 254.800 C 165.320 246.139,165.593 247.588,159.205 229.200 C 157.638 224.690,155.730 219.146,154.964 216.880 C 152.040 208.227,152.935 209.287,141.800 201.274 C 139.600 199.691,136.090 197.137,134.000 195.598 C 131.910 194.059,128.130 191.322,125.600 189.516 C 120.693 186.011,116.984 182.519,110.504 175.300 C 105.603 169.840,105.688 170.061,102.604 154.600 C 99.771 140.402,99.700 140.192,98.844 143.500 M299.842 142.700 C 299.726 143.085,298.625 148.440,297.396 154.600 C 294.312 170.061,294.397 169.840,289.496 175.300 C 283.016 182.519,279.307 186.011,274.400 189.516 C 271.870 191.322,268.090 194.059,266.000 195.598 C 263.910 197.137,260.400 199.691,258.200 201.274 C 247.065 209.287,247.960 208.227,245.036 216.880 C 244.270 219.146,242.362 224.690,240.795 229.200 C 234.426 247.536,234.656 246.324,235.963 254.600 C 236.495 257.969,237.716 266.459,238.250 270.496 C 238.524 272.564,239.881 274.421,241.081 274.368 C 241.581 274.346,241.482 274.220,240.758 273.954 C 238.641 273.178,238.421 271.508,239.647 265.529 C 240.751 260.141,241.042 258.666,241.538 255.926 C 241.764 254.676,242.224 252.516,242.560 251.126 C 243.167 248.616,244.225 243.661,244.808 240.600 C 244.975 239.720,245.332 238.010,245.600 236.800 C 245.868 235.590,246.227 233.880,246.397 233.000 C 246.568 232.120,247.109 229.510,247.600 227.200 C 248.517 222.888,248.907 220.973,249.430 218.225 C 249.751 216.533,251.660 214.363,256.200 210.526 C 257.520 209.411,262.200 205.368,266.600 201.541 C 271.000 197.715,277.210 192.352,280.400 189.623 C 286.828 184.124,290.958 180.067,292.255 177.977 C 292.726 177.220,295.132 173.143,297.604 168.918 C 300.075 164.693,302.424 160.941,302.823 160.579 C 303.798 159.697,303.903 160.386,304.373 170.800 L 304.744 179.000 304.557 170.400 C 304.371 161.840,304.074 158.879,303.428 159.134 C 302.817 159.376,302.412 158.234,302.406 156.245 C 302.382 148.476,300.732 139.758,299.842 142.700 M68.914 147.800 C 68.917 148.900,68.995 149.303,69.087 148.695 C 69.179 148.086,69.177 147.186,69.082 146.695 C 68.987 146.203,68.911 146.700,68.914 147.800 M330.909 148.000 C 330.909 148.990,330.987 149.395,331.082 148.900 C 331.178 148.405,331.178 147.595,331.082 147.100 C 330.987 146.605,330.909 147.010,330.909 148.000 M69.709 156.400 C 69.709 157.390,69.787 157.795,69.882 157.300 C 69.978 156.805,69.978 155.995,69.882 155.500 C 69.787 155.005,69.709 155.410,69.709 156.400 M330.101 156.600 C 330.105 157.480,330.187 157.793,330.283 157.295 C 330.379 156.798,330.375 156.078,330.275 155.695 C 330.175 155.313,330.096 155.720,330.101 156.600 M329.314 165.000 C 329.317 166.100,329.395 166.503,329.487 165.895 C 329.579 165.286,329.577 164.386,329.482 163.895 C 329.387 163.403,329.311 163.900,329.314 165.000 M70.509 165.200 C 70.509 166.190,70.587 166.595,70.682 166.100 C 70.778 165.605,70.778 164.795,70.682 164.300 C 70.587 163.805,70.509 164.210,70.509 165.200 M71.228 173.633 C 71.244 174.605,71.406 175.760,71.590 176.200 C 71.792 176.683,71.838 176.049,71.707 174.600 C 71.445 171.710,71.189 171.193,71.228 173.633 M328.509 173.600 C 328.509 174.590,328.587 174.995,328.682 174.500 C 328.778 174.005,328.778 173.195,328.682 172.700 C 328.587 172.205,328.509 172.610,328.509 173.600 M117.242 174.149 C 116.574 174.954,117.139 176.000,118.243 176.000 C 119.373 176.000,119.636 174.253,118.567 173.843 C 117.735 173.524,117.768 173.516,117.242 174.149 M281.300 173.865 C 280.331 174.256,280.705 176.000,281.757 176.000 C 282.861 176.000,283.426 174.954,282.758 174.149 C 282.278 173.571,282.109 173.538,281.300 173.865 M305.100 187.600 C 305.212 192.330,305.370 196.275,305.452 196.367 C 305.706 196.653,305.526 186.789,305.203 182.800 C 305.009 180.396,304.971 182.159,305.100 187.600 M94.702 184.000 C 94.538 186.530,94.430 190.400,94.462 192.600 C 94.509 195.791,94.590 195.144,94.864 189.400 C 95.052 185.440,95.160 181.570,95.103 180.800 C 95.046 180.030,94.866 181.470,94.702 184.000 M126.081 181.476 C 125.540 182.526,125.922 183.200,127.060 183.200 C 127.907 183.200,128.034 183.038,127.927 182.103 C 127.777 180.809,126.626 180.418,126.081 181.476 M272.267 181.067 C 272.120 181.213,272.000 181.753,272.000 182.267 C 272.000 183.296,273.769 183.658,274.113 182.700 C 274.523 181.555,273.067 180.267,272.267 181.067 M89.819 197.300 C 89.733 197.575,89.572 198.610,89.460 199.600 C 89.348 200.590,89.035 202.480,88.764 203.800 C 88.493 205.120,88.283 206.886,88.297 207.724 C 88.321 209.113,88.273 209.184,87.753 208.524 C 87.439 208.126,92.692 218.825,99.426 232.300 C 106.159 245.775,111.886 256.800,112.151 256.800 C 112.416 256.800,113.436 257.629,114.417 258.642 C 115.398 259.656,117.730 261.769,119.600 263.338 C 121.470 264.907,124.440 267.563,126.200 269.239 C 127.960 270.916,130.750 273.409,132.400 274.780 C 138.603 279.933,143.963 284.947,144.347 285.956 C 145.484 288.936,146.628 295.089,147.059 300.533 C 147.283 303.369,147.874 304.659,148.610 303.923 C 149.602 302.931,151.596 294.114,151.375 291.697 C 150.668 283.954,150.045 282.322,145.991 277.600 C 144.197 275.510,141.530 272.399,140.065 270.687 C 137.526 267.721,133.271 263.852,129.180 260.789 C 128.143 260.014,126.172 258.394,124.799 257.189 C 123.426 255.985,122.052 254.854,121.745 254.677 C 121.438 254.499,119.762 252.519,118.020 250.277 C 116.277 248.034,113.050 243.950,110.848 241.200 C 97.199 224.151,91.221 211.280,91.203 198.900 C 91.200 196.889,90.279 195.824,89.819 197.300 M308.666 200.483 C 308.415 204.104,307.980 206.160,305.804 214.000 C 303.940 220.718,298.722 229.238,289.145 241.200 C 286.943 243.950,283.798 247.939,282.155 250.065 C 280.512 252.191,278.320 254.618,277.284 255.459 C 276.248 256.300,275.040 257.325,274.600 257.736 C 274.160 258.147,272.450 259.526,270.800 260.800 C 265.121 265.183,262.404 267.820,256.584 274.601 C 250.222 282.013,250.246 281.973,249.431 286.137 C 248.439 291.205,248.302 294.338,248.982 296.363 C 249.322 297.373,249.980 299.514,250.445 301.121 C 251.395 304.401,252.518 305.039,252.692 302.397 C 253.001 297.733,254.658 288.522,255.652 285.946 C 256.074 284.852,259.136 281.953,265.834 276.305 C 267.990 274.487,271.474 271.397,273.577 269.437 C 275.680 267.477,278.840 264.661,280.600 263.179 C 282.360 261.697,284.602 259.656,285.583 258.642 C 286.564 257.629,287.586 256.800,287.855 256.800 C 288.124 256.800,293.850 245.775,300.581 232.300 C 307.311 218.825,312.561 208.126,312.247 208.524 C 311.727 209.184,311.679 209.113,311.703 207.724 C 311.717 206.886,311.506 205.120,311.235 203.800 C 310.963 202.480,310.619 200.412,310.470 199.205 C 309.988 195.291,308.975 196.008,308.666 200.483 M94.432 199.510 C 94.396 200.080,97.096 205.600,97.410 205.600 C 97.520 205.600,97.003 204.385,96.262 202.900 C 95.520 201.415,94.812 199.930,94.688 199.600 C 94.544 199.215,94.452 199.183,94.432 199.510 M303.918 202.475 C 303.102 204.194,302.515 205.600,302.612 205.600 C 302.901 205.600,305.655 199.959,305.522 199.641 C 305.455 199.481,304.733 200.756,303.918 202.475 M99.990 210.600 C 101.370 213.240,102.685 215.580,102.911 215.800 C 103.136 216.020,102.191 214.040,100.810 211.400 C 99.430 208.760,98.115 206.420,97.889 206.200 C 97.664 205.980,98.609 207.960,99.990 210.600 M300.634 208.674 C 299.853 210.144,299.289 211.423,299.381 211.515 C 299.473 211.607,300.192 210.404,300.979 208.841 C 302.792 205.242,302.525 205.113,300.634 208.674 M297.800 214.000 C 297.243 215.100,296.877 216.000,296.987 216.000 C 297.097 216.000,297.643 215.100,298.200 214.000 C 298.757 212.900,299.123 212.000,299.013 212.000 C 298.903 212.000,298.357 212.900,297.800 214.000 M103.270 216.700 C 103.972 218.247,106.055 222.000,106.211 222.000 C 106.320 222.000,105.776 220.740,105.000 219.200 C 104.224 217.660,103.487 216.400,103.362 216.400 C 103.236 216.400,103.195 216.535,103.270 216.700 M294.600 220.000 C 294.043 221.100,293.677 222.000,293.787 222.000 C 293.897 222.000,294.443 221.100,295.000 220.000 C 295.557 218.900,295.923 218.000,295.813 218.000 C 295.703 218.000,295.157 218.900,294.600 220.000 M107.400 224.400 C 107.957 225.500,108.503 226.400,108.613 226.400 C 108.723 226.400,108.357 225.500,107.800 224.400 C 107.243 223.300,106.697 222.400,106.587 222.400 C 106.477 222.400,106.843 223.300,107.400 224.400 M292.220 224.360 C 291.652 225.482,291.264 226.400,291.359 226.400 C 291.651 226.400,293.623 222.690,293.433 222.499 C 293.334 222.401,292.789 223.238,292.220 224.360 M108.800 227.038 C 108.800 227.782,111.160 230.235,117.117 235.679 C 120.792 239.039,123.890 241.880,124.000 241.994 C 124.110 242.107,126.270 244.090,128.800 246.399 C 131.330 248.709,134.449 251.589,135.731 252.799 C 137.013 254.010,138.287 255.126,138.561 255.281 C 138.836 255.435,142.287 259.035,146.230 263.279 C 156.166 273.974,156.598 274.402,157.447 274.384 C 157.977 274.373,157.845 274.209,157.000 273.830 C 156.340 273.533,155.456 272.865,155.034 272.345 C 153.025 269.864,146.559 262.918,142.221 258.580 C 138.222 254.581,135.352 251.885,127.769 245.000 C 116.930 235.160,110.202 228.777,109.752 227.907 C 109.216 226.871,108.800 226.491,108.800 227.038 M290.255 227.893 C 289.924 228.535,283.655 234.529,276.326 241.214 C 260.276 255.852,250.310 265.746,244.966 272.345 C 244.544 272.865,243.660 273.533,243.000 273.830 C 242.155 274.209,242.023 274.373,242.553 274.384 C 243.402 274.402,243.834 273.974,253.770 263.279 C 257.713 259.035,261.164 255.435,261.439 255.281 C 261.713 255.126,262.987 254.010,264.269 252.799 C 265.551 251.589,268.670 248.709,271.200 246.399 C 273.730 244.090,275.890 242.107,276.000 241.994 C 276.110 241.880,279.208 239.039,282.883 235.679 C 289.255 229.855,291.545 227.412,291.073 226.940 C 290.955 226.822,290.587 227.251,290.255 227.893 M190.400 358.637 C 189.630 358.726,188.055 358.903,186.900 359.029 C 183.421 359.408,184.019 360.081,191.600 364.315 C 192.590 364.869,194.366 365.935,195.547 366.686 L 197.695 368.051 197.510 370.274 C 197.284 373.011,197.284 373.011,190.800 374.626 C 179.316 377.487,177.929 377.747,177.036 377.209 C 176.576 376.932,176.380 376.896,176.600 377.129 C 177.800 378.398,189.220 385.518,189.117 384.932 C 189.024 384.402,189.682 384.117,192.397 383.516 C 194.635 383.020,196.136 382.446,196.797 381.834 C 199.626 379.210,200.374 379.210,203.203 381.834 C 203.864 382.446,205.365 383.020,207.603 383.516 C 210.318 384.117,210.976 384.402,210.883 384.932 C 210.780 385.518,222.200 378.398,223.400 377.129 C 223.620 376.896,223.424 376.932,222.964 377.209 C 222.071 377.747,220.684 377.487,209.200 374.626 C 202.716 373.011,202.716 373.011,202.490 370.274 L 202.305 368.051 204.453 366.686 C 205.634 365.935,207.410 364.869,208.400 364.315 C 215.527 360.334,216.380 359.517,213.900 359.042 C 212.354 358.746,192.416 358.402,190.400 358.637 M156.800 362.925 C 156.800 362.994,157.385 363.579,158.100 364.225 L 159.400 365.400 158.225 364.100 C 157.130 362.888,156.800 362.616,156.800 362.925 M241.775 364.100 L 240.600 365.400 241.900 364.225 C 242.615 363.579,243.200 362.994,243.200 362.925 C 243.200 362.616,242.870 362.888,241.775 364.100 M161.600 368.525 C 161.600 368.594,162.185 369.179,162.900 369.825 L 164.200 371.000 163.025 369.700 C 161.930 368.488,161.600 368.216,161.600 368.525 M236.975 369.700 L 235.800 371.000 237.100 369.825 C 237.815 369.179,238.400 368.594,238.400 368.525 C 238.400 368.216,238.070 368.488,236.975 369.700 M172.400 374.550 C 172.400 374.644,173.041 375.099,173.824 375.561 C 174.607 376.023,175.136 376.220,174.999 375.998 C 174.731 375.564,172.400 374.266,172.400 374.550 M224.856 376.013 C 223.616 377.046,224.175 377.035,225.491 376.000 C 226.050 375.560,226.349 375.206,226.154 375.213 C 225.959 375.221,225.375 375.581,224.856 376.013 M190.509 386.400 C 191.069 386.840,191.657 387.200,191.817 387.200 C 191.977 387.200,191.650 386.840,191.091 386.400 C 190.531 385.960,189.943 385.600,189.783 385.600 C 189.623 385.600,189.950 385.960,190.509 386.400 M198.900 388.287 C 199.505 388.378,200.495 388.378,201.100 388.287 C 201.705 388.195,201.210 388.120,200.000 388.120 C 198.790 388.120,198.295 388.195,198.900 388.287 " stroke="none" fill="#950809" fill-rule="evenodd"></path><path id="path2" d="M114.549 15.897 C 113.257 17.381,111.210 19.685,110.000 21.019 C 107.650 23.609,106.700 24.675,102.000 29.996 C 100.350 31.864,98.082 34.384,96.959 35.596 C 95.837 36.808,94.217 38.610,93.359 39.600 C 92.502 40.590,91.708 41.490,91.594 41.600 C 91.481 41.710,90.041 43.330,88.394 45.200 C 86.748 47.070,85.304 48.690,85.187 48.800 C 82.167 51.636,78.013 56.958,77.805 58.259 C 77.670 59.107,77.404 60.520,77.215 61.400 C 77.026 62.280,76.665 64.260,76.412 65.800 C 76.159 67.340,75.796 69.410,75.606 70.400 C 75.416 71.390,75.053 73.370,74.800 74.800 C 74.296 77.648,73.893 79.836,73.254 83.200 C 73.025 84.410,72.634 86.570,72.386 88.000 C 72.138 89.430,71.778 91.410,71.587 92.400 C 71.395 93.390,71.050 95.235,70.819 96.500 C 70.589 97.765,70.209 99.835,69.976 101.100 C 69.380 104.332,68.908 106.983,68.391 110.000 C 68.146 111.430,67.787 113.320,67.593 114.200 C 66.604 118.691,66.656 121.390,67.997 135.200 C 68.439 139.749,69.817 154.550,70.398 161.000 C 71.384 171.938,71.618 174.322,71.846 175.765 C 72.039 176.990,87.337 208.271,88.132 209.065 C 88.237 209.171,88.312 208.569,88.298 207.728 C 88.283 206.888,88.494 205.120,88.765 203.800 C 89.037 202.480,89.381 200.412,89.530 199.205 C 89.922 196.022,91.199 195.767,91.203 198.871 C 91.221 211.281,97.186 224.136,110.848 241.200 C 113.050 243.950,116.277 248.034,118.020 250.277 C 119.762 252.519,121.438 254.499,121.745 254.677 C 122.052 254.854,123.426 255.985,124.799 257.189 C 126.172 258.394,128.143 260.014,129.180 260.789 C 133.271 263.852,137.526 267.721,140.065 270.687 C 141.530 272.399,144.197 275.510,145.991 277.600 C 150.045 282.322,150.668 283.954,151.375 291.697 C 151.596 294.114,149.602 302.931,148.610 303.923 C 147.874 304.659,147.283 303.369,147.059 300.533 C 146.628 295.089,145.484 288.936,144.347 285.956 C 143.963 284.947,138.603 279.933,132.400 274.780 C 130.750 273.409,127.960 270.916,126.200 269.239 C 124.440 267.563,121.470 264.907,119.600 263.338 C 117.730 261.769,115.398 259.656,114.417 258.642 C 112.592 256.757,111.690 256.251,112.380 257.500 C 112.593 257.885,114.372 261.440,116.334 265.400 C 118.296 269.360,124.562 281.870,130.257 293.200 C 135.952 304.530,140.859 314.610,141.160 315.600 C 141.462 316.590,141.860 317.940,142.045 318.600 C 142.231 319.260,142.722 320.880,143.138 322.200 C 143.553 323.520,144.121 325.410,144.400 326.400 C 144.679 327.390,145.219 329.190,145.600 330.400 C 145.981 331.610,146.495 333.320,146.743 334.200 C 146.991 335.080,147.542 336.970,147.968 338.400 C 148.394 339.830,149.134 342.350,149.613 344.000 C 150.092 345.650,150.632 347.450,150.814 348.000 C 150.996 348.550,151.536 350.350,152.014 352.000 C 152.492 353.650,153.030 355.450,153.209 356.000 C 153.388 356.550,153.644 357.499,153.777 358.108 C 153.989 359.076,163.180 370.238,164.763 371.450 C 165.087 371.697,166.532 372.295,167.976 372.777 C 171.553 373.973,173.044 374.664,175.468 376.248 C 178.080 377.956,176.900 378.081,190.800 374.624 C 197.283 373.011,197.283 373.011,197.510 370.274 L 197.695 368.051 195.547 366.686 C 194.366 365.935,192.590 364.869,191.600 364.315 C 181.732 358.803,182.031 358.600,200.000 358.600 C 217.969 358.600,218.268 358.803,208.400 364.315 C 207.410 364.869,205.634 365.935,204.453 366.686 L 202.305 368.051 202.490 370.274 C 202.717 373.011,202.717 373.011,209.200 374.624 C 222.884 378.027,221.938 377.907,224.108 376.512 C 226.745 374.817,228.754 373.868,231.942 372.812 C 235.164 371.744,235.089 371.809,241.584 364.400 C 245.362 360.091,245.969 359.114,246.808 356.000 C 247.075 355.010,247.440 353.750,247.619 353.200 C 247.799 352.650,248.343 350.850,248.830 349.200 C 249.698 346.257,250.398 343.896,252.003 338.500 C 252.445 337.015,253.006 335.080,253.250 334.200 C 253.493 333.320,253.840 332.150,254.019 331.600 C 254.199 331.050,254.743 329.250,255.230 327.600 C 256.664 322.735,257.487 319.983,258.448 316.834 C 258.960 315.155,263.860 304.911,269.738 293.234 C 275.449 281.885,281.721 269.360,283.675 265.400 C 285.629 261.440,287.403 257.885,287.617 257.500 C 288.313 256.249,287.407 256.758,285.583 258.642 C 284.602 259.656,282.360 261.697,280.600 263.179 C 278.840 264.661,275.680 267.477,273.577 269.437 C 271.474 271.397,267.990 274.487,265.834 276.305 C 259.136 281.953,256.074 284.852,255.652 285.946 C 254.658 288.522,253.001 297.733,252.692 302.397 C 252.518 305.039,251.395 304.401,250.445 301.121 C 249.980 299.514,249.322 297.373,248.982 296.363 C 248.302 294.338,248.439 291.205,249.431 286.137 C 250.246 281.973,250.222 282.013,256.584 274.601 C 262.404 267.820,265.121 265.183,270.800 260.800 C 272.450 259.526,274.160 258.147,274.600 257.736 C 275.040 257.325,276.248 256.300,277.284 255.459 C 278.320 254.618,280.512 252.191,282.155 250.065 C 283.798 247.939,286.943 243.950,289.145 241.200 C 298.722 229.238,303.940 220.718,305.804 214.000 C 307.980 206.160,308.415 204.104,308.666 200.483 C 308.975 196.008,309.988 195.291,310.470 199.205 C 310.619 200.412,310.963 202.480,311.235 203.800 C 311.506 205.120,311.717 206.888,311.702 207.728 C 311.688 208.569,311.765 209.168,311.874 209.059 C 312.673 208.261,327.959 177.006,328.155 175.771 C 328.292 174.907,328.768 170.240,329.212 165.400 C 329.656 160.560,330.195 154.710,330.410 152.400 C 330.624 150.090,330.972 146.310,331.182 144.000 C 331.392 141.690,331.949 135.660,332.421 130.600 C 333.258 121.611,333.259 118.018,332.425 114.000 C 331.781 110.900,331.281 108.293,330.814 105.600 C 330.566 104.170,330.181 102.010,329.958 100.800 C 329.735 99.590,329.374 97.610,329.157 96.400 C 328.939 95.190,328.605 93.390,328.413 92.400 C 328.222 91.410,327.862 89.430,327.614 88.000 C 327.097 85.018,326.592 82.267,326.036 79.400 C 325.823 78.300,325.441 76.140,325.188 74.600 C 324.935 73.060,324.574 71.080,324.385 70.200 C 324.196 69.320,323.836 67.340,323.585 65.800 C 323.334 64.260,322.974 62.280,322.785 61.400 C 322.596 60.520,322.330 59.107,322.195 58.259 C 322.003 57.058,321.186 55.870,318.480 52.859 C 316.573 50.737,314.379 48.286,313.606 47.413 C 312.833 46.540,311.296 44.830,310.192 43.613 C 308.248 41.470,302.862 35.452,300.000 32.223 C 299.230 31.354,297.610 29.547,296.400 28.206 C 295.190 26.865,291.685 22.940,288.612 19.484 C 285.538 16.028,282.871 13.200,282.684 13.200 C 282.412 13.200,278.484 16.130,274.800 19.081 C 273.902 19.800,263.641 27.895,261.800 29.336 C 260.920 30.025,259.930 30.806,259.600 31.071 C 259.270 31.337,257.532 32.727,255.738 34.162 C 253.944 35.596,252.414 36.941,252.338 37.149 C 252.262 37.358,251.548 38.310,250.751 39.264 C 249.954 40.219,247.374 43.340,245.017 46.200 C 242.661 49.060,240.403 51.789,240.000 52.264 C 239.597 52.740,238.411 54.180,237.365 55.464 C 229.906 64.624,223.950 71.541,222.965 72.186 C 221.851 72.916,221.372 72.928,211.033 72.481 C 202.813 72.125,197.642 72.126,189.201 72.485 L 178.141 72.955 176.898 72.070 C 176.215 71.583,172.808 67.742,169.328 63.534 C 165.848 59.326,160.232 52.534,156.848 48.441 C 153.464 44.349,150.044 40.219,149.248 39.264 C 148.452 38.310,147.738 37.358,147.662 37.149 C 147.586 36.941,146.056 35.596,144.262 34.162 C 142.468 32.727,140.730 31.337,140.400 31.071 C 140.070 30.806,139.080 30.025,138.200 29.336 C 137.320 28.647,134.240 26.220,131.355 23.942 C 128.471 21.664,125.418 19.260,124.571 18.600 C 123.725 17.940,121.855 16.457,120.416 15.305 C 117.149 12.689,117.361 12.668,114.549 15.897 M116.220 49.162 C 116.429 49.362,117.286 49.905,118.125 50.369 C 119.544 51.156,122.480 53.549,129.968 60.021 C 131.636 61.463,135.430 64.445,138.400 66.649 C 141.743 69.129,145.756 72.626,148.934 75.828 L 154.068 81.000 158.030 89.000 C 160.210 93.400,161.994 97.315,161.996 97.700 C 162.002 98.833,161.025 98.508,159.588 96.900 C 148.936 84.981,147.614 83.651,139.801 77.000 C 138.509 75.900,135.330 73.166,132.736 70.924 C 127.855 66.704,125.742 65.324,118.077 61.347 L 113.554 59.000 112.177 56.177 C 110.463 52.664,110.467 52.371,112.247 50.401 C 113.683 48.811,115.317 48.302,116.220 49.162 M287.753 50.401 C 289.533 52.371,289.537 52.664,287.823 56.177 L 286.446 59.000 281.923 61.347 C 274.001 65.457,272.034 66.778,265.844 72.146 C 262.512 75.036,258.202 78.735,256.267 80.366 C 253.050 83.076,249.353 86.901,241.827 95.304 C 236.734 100.990,236.766 99.510,241.963 89.000 L 245.918 81.000 251.459 75.496 C 254.776 72.201,259.017 68.509,262.024 66.296 C 264.788 64.263,268.658 61.220,270.624 59.533 C 279.186 52.188,281.367 50.399,281.771 50.391 C 282.007 50.386,282.650 50.030,283.200 49.600 C 284.798 48.350,286.108 48.580,287.753 50.401 M116.260 63.766 C 117.547 64.737,124.749 70.567,132.264 76.722 C 139.780 82.877,146.732 88.465,147.715 89.141 C 150.640 91.154,149.896 96.000,146.662 96.000 C 146.544 96.000,144.231 97.320,141.523 98.932 C 136.900 101.686,131.098 105.103,123.200 109.722 C 121.330 110.815,119.170 112.094,118.400 112.563 C 117.630 113.031,116.495 113.672,115.878 113.987 C 115.260 114.302,114.016 115.378,113.113 116.380 C 112.210 117.381,110.550 119.190,109.424 120.400 C 108.299 121.610,103.696 126.650,99.197 131.600 C 87.246 144.747,86.400 145.600,85.310 145.600 L 84.361 145.600 84.593 140.500 C 84.720 137.695,85.006 132.520,85.228 129.000 C 85.451 125.480,85.701 119.180,85.785 115.000 C 86.148 96.744,85.676 98.421,93.850 86.400 C 96.917 81.890,100.051 77.277,100.813 76.149 C 111.571 60.237,111.578 60.232,116.260 63.766 M288.984 62.568 C 290.315 63.124,290.967 63.992,299.187 76.149 C 299.949 77.277,303.083 81.890,306.150 86.400 C 314.324 98.421,313.852 96.744,314.215 115.000 C 314.299 119.180,314.549 125.480,314.772 129.000 C 314.994 132.520,315.280 137.695,315.407 140.500 L 315.639 145.600 314.690 145.600 C 313.594 145.600,312.645 144.644,300.797 131.600 C 296.301 126.650,292.527 122.510,292.411 122.400 C 292.294 122.290,290.635 120.481,288.725 118.381 C 286.814 116.281,284.744 114.304,284.125 113.989 C 283.506 113.673,282.370 113.031,281.600 112.563 C 280.830 112.094,278.670 110.815,276.800 109.722 C 268.902 105.103,263.100 101.686,258.477 98.932 C 255.769 97.320,253.456 96.000,253.338 96.000 C 253.220 96.000,252.588 95.619,251.934 95.153 C 249.355 93.317,249.632 90.985,252.683 88.839 C 254.540 87.534,266.723 77.766,267.200 77.200 C 267.310 77.070,270.705 74.271,274.744 70.982 C 286.799 61.163,286.312 61.451,288.984 62.568 M100.158 142.700 C 100.274 143.085,101.375 148.440,102.604 154.600 C 105.688 170.061,105.603 169.840,110.504 175.300 C 116.984 182.519,120.693 186.011,125.600 189.516 C 128.130 191.322,131.910 194.059,134.000 195.598 C 136.090 197.137,139.600 199.691,141.800 201.274 C 152.935 209.287,152.040 208.227,154.964 216.880 C 155.730 219.146,157.638 224.690,159.205 229.200 C 165.593 247.588,165.320 246.139,164.018 254.800 C 163.803 256.230,163.435 258.750,163.200 260.400 C 162.965 262.050,162.599 264.570,162.387 266.000 C 162.174 267.430,161.888 269.453,161.750 270.496 C 161.417 273.012,160.143 274.400,158.166 274.400 C 156.475 274.400,157.122 275.003,146.230 263.279 C 142.287 259.035,138.836 255.435,138.561 255.281 C 138.287 255.126,137.013 254.010,135.731 252.799 C 134.449 251.589,131.330 248.709,128.800 246.399 C 126.271 244.090,123.301 241.370,122.200 240.356 C 121.100 239.342,117.879 236.372,115.042 233.756 C 112.204 231.140,109.592 228.460,109.236 227.800 C 108.880 227.140,107.525 224.620,106.225 222.200 C 104.925 219.780,103.562 217.260,103.197 216.600 C 102.831 215.940,100.671 211.907,98.396 207.637 L 94.260 199.875 94.352 192.863 C 94.403 189.007,94.516 185.737,94.602 185.596 C 94.689 185.456,94.960 180.044,95.205 173.570 C 95.649 161.839,95.929 158.880,96.572 159.134 C 97.183 159.376,97.588 158.234,97.594 156.245 C 97.618 148.476,99.268 139.758,100.158 142.700 M301.156 143.500 C 301.601 145.217,302.397 153.334,302.406 156.245 C 302.412 158.234,302.817 159.376,303.428 159.134 C 304.069 158.880,304.349 161.827,304.803 173.585 C 305.053 180.067,305.322 185.473,305.400 185.599 C 305.478 185.726,305.593 188.976,305.656 192.823 L 305.771 199.817 301.619 207.609 C 299.335 211.894,297.074 216.120,296.595 217.000 C 296.115 217.880,294.855 220.220,293.796 222.200 C 292.737 224.180,291.472 226.520,290.985 227.400 C 290.499 228.280,287.783 231.140,284.950 233.756 C 276.921 241.170,276.095 241.930,271.200 246.399 C 268.670 248.709,265.551 251.589,264.269 252.799 C 262.987 254.010,261.713 255.126,261.439 255.281 C 261.164 255.435,257.713 259.035,253.770 263.279 C 242.878 275.003,243.525 274.400,241.834 274.400 C 239.857 274.400,238.583 273.012,238.250 270.496 C 237.716 266.459,236.495 257.969,235.963 254.600 C 234.656 246.324,234.426 247.536,240.795 229.200 C 242.362 224.690,244.270 219.146,245.036 216.880 C 247.960 208.227,247.065 209.287,258.200 201.274 C 260.400 199.691,263.910 197.137,266.000 195.598 C 268.090 194.059,271.870 191.322,274.400 189.516 C 279.307 186.011,283.016 182.519,289.496 175.300 C 294.397 169.840,294.312 170.061,297.396 154.600 C 300.229 140.402,300.300 140.192,301.156 143.500 M118.567 173.843 C 119.636 174.253,119.373 176.000,118.243 176.000 C 117.139 176.000,116.574 174.954,117.242 174.149 C 117.768 173.516,117.735 173.524,118.567 173.843 M282.758 174.149 C 283.426 174.954,282.861 176.000,281.757 176.000 C 280.211 176.000,280.480 173.829,282.051 173.632 C 282.189 173.614,282.507 173.847,282.758 174.149 M127.927 182.103 C 128.034 183.038,127.907 183.200,127.060 183.200 C 125.922 183.200,125.540 182.526,126.081 181.476 C 126.626 180.418,127.777 180.809,127.927 182.103 M273.932 181.500 C 274.457 182.520,274.071 183.200,272.967 183.200 C 272.221 183.200,272.000 182.987,272.000 182.267 C 272.000 180.696,273.261 180.195,273.932 181.500 M198.789 380.261 C 198.245 380.625,197.350 381.334,196.800 381.836 C 196.177 382.405,194.668 382.995,192.800 383.401 C 188.843 384.261,188.781 384.285,189.014 384.893 C 189.226 385.446,189.559 385.661,192.419 387.091 C 196.859 389.313,209.872 387.797,210.972 384.929 C 211.220 384.283,211.177 384.265,207.200 383.401 C 205.332 382.995,203.823 382.405,203.200 381.836 C 202.087 380.820,200.342 379.600,200.000 379.600 C 199.878 379.600,199.333 379.898,198.789 380.261 " stroke="none" fill="#fbfbfb" fill-rule="evenodd"></path></g></svg>