<?xml version="1.0" encoding="UTF-8" standalone="no"?>
<!-- Generator: Adobe Illustrator 17.1.0, SVG Export Plug-In . SVG Version: 6.00 Build 0)  -->

<svg
   version="1.1"
   id="Capa_1"
   x="0px"
   y="0px"
   viewBox="0 0 206.185 206.185"
   style="enable-background:new 0 0 206.185 206.185;"
   xml:space="preserve"
   sodipodi:docname="mods.svg"
   inkscape:version="1.2.1 (9c6d41e410, 2022-07-14, custom)"
   xmlns:inkscape="http://www.inkscape.org/namespaces/inkscape"
   xmlns:sodipodi="http://sodipodi.sourceforge.net/DTD/sodipodi-0.dtd"
   xmlns="http://www.w3.org/2000/svg"
   xmlns:svg="http://www.w3.org/2000/svg"><defs
   id="defs1026" /><sodipodi:namedview
   id="namedview1024"
   pagecolor="#ffffff"
   bordercolor="#000000"
   borderopacity="0.25"
   inkscape:showpageshadow="2"
   inkscape:pageopacity="0.0"
   inkscape:pagecheckerboard="0"
   inkscape:deskcolor="#d1d1d1"
   showgrid="false"
   inkscape:zoom="3.60356"
   inkscape:cx="103.23125"
   inkscape:cy="103.23125"
   inkscape:window-width="1920"
   inkscape:window-height="1057"
   inkscape:window-x="0"
   inkscape:window-y="0"
   inkscape:window-maximized="1"
   inkscape:current-layer="Capa_1" />
<path
   d="m 37.789,92.03 c 3.313,0 6.574,0.492 9.687,1.44 V 51.833 c 0,-4.142 3.357,-7.5 7.5,-7.5 H 93.208 C 91.967,40.82 91.32,37.08 91.32,33.229 91.32,14.906 106.226,0 124.549,0 c 18.323,0 33.23,14.906 33.23,33.229 0,3.851 -0.646,7.592 -1.888,11.104 h 38.232 c 4.143,0 7.5,3.358 7.5,7.5 v 49.721 c 0,2.515 -1.261,4.863 -3.357,6.252 -2.097,1.389 -4.75,1.636 -7.066,0.654 -2.243,-0.95 -4.631,-1.431 -7.097,-1.431 -10.052,0 -18.23,8.178 -18.23,18.229 0,10.051 8.178,18.229 18.23,18.229 2.466,0 4.853,-0.481 7.097,-1.431 2.316,-0.982 4.97,-0.735 7.066,0.654 2.097,1.389 3.357,3.737 3.357,6.252 v 49.721 c 0,4.142 -3.357,7.5 -7.5,7.5 h -45.687 c -0.007,0.001 -0.015,0 -0.02,0 -4.143,0 -7.5,-3.358 -7.5,-7.5 0,-1.152 0.259,-2.243 0.724,-3.219 0.756,-2.032 1.139,-4.163 1.139,-6.341 0,-10.052 -8.178,-18.229 -18.229,-18.229 -10.051,0 -18.229,8.178 -18.229,18.229 0,2.332 0.439,4.609 1.305,6.77 0.926,2.311 0.645,4.931 -0.75,6.993 -1.396,2.062 -3.723,3.297 -6.212,3.297 H 54.977 c -4.143,0 -7.5,-3.358 -7.5,-7.5 v -41.636 c -3.112,0.948 -6.373,1.44 -9.687,1.44 -18.322,0 -33.229,-14.906 -33.229,-33.229 0,-18.323 14.905,-33.228 33.228,-33.228 z"
   id="path991"
   style="fill:#e6a32e;fill-opacity:1" />
<g
   id="g993">
</g>
<g
   id="g995">
</g>
<g
   id="g997">
</g>
<g
   id="g999">
</g>
<g
   id="g1001">
</g>
<g
   id="g1003">
</g>
<g
   id="g1005">
</g>
<g
   id="g1007">
</g>
<g
   id="g1009">
</g>
<g
   id="g1011">
</g>
<g
   id="g1013">
</g>
<g
   id="g1015">
</g>
<g
   id="g1017">
</g>
<g
   id="g1019">
</g>
<g
   id="g1021">
</g>
</svg>
