<?xml version="1.0" encoding="UTF-8" standalone="no"?>
<svg
   id="Layer_1"
   data-name="Layer 1"
   viewBox="0 0 913.34993 913.53"
   version="1.1"
   sodipodi:docname="quilt.svg"
   width="913.34998"
   height="913.53003"
   inkscape:version="1.2.1 (9c6d41e410, 2022-07-14, custom)"
   xmlns:inkscape="http://www.inkscape.org/namespaces/inkscape"
   xmlns:sodipodi="http://sodipodi.sourceforge.net/DTD/sodipodi-0.dtd"
   xmlns="http://www.w3.org/2000/svg"
   xmlns:svg="http://www.w3.org/2000/svg">
  <sodipodi:namedview
     id="namedview55"
     pagecolor="#ffffff"
     bordercolor="#000000"
     borderopacity="0.25"
     inkscape:showpageshadow="2"
     inkscape:pageopacity="0.0"
     inkscape:pagecheckerboard="0"
     inkscape:deskcolor="#d1d1d1"
     showgrid="false"
     inkscape:zoom="0.78635444"
     inkscape:cx="1029.434"
     inkscape:cy="557.00074"
     inkscape:window-width="1920"
     inkscape:window-height="1057"
     inkscape:window-x="0"
     inkscape:window-y="0"
     inkscape:window-maximized="1"
     inkscape:current-layer="Layer_1" />
  <defs
     id="defs4">
    <style
       id="style2">.cls-1{fill:#9722ff;}.cls-2{fill:#dc29dd;}.cls-3{fill:#27a2fd;}.cls-4{fill:#34f;}.cls-5{fill:#fff;}</style>
  </defs>
  <path
     class="cls-1"
     d="m 231.35632,113.27971 a 15.28,15.28 0 0 0 15.26,15.27 h 26 v 58 h -26 a 15.27,15.27 0 0 0 0,30.53 h 26 v 44.5 a 13.52,13.52 0 0 1 -13.52,13.53 h -44.5 v -26 a 15.27,15.27 0 0 0 -30.54,0 v 26 h -58 v -26 a 15.27,15.27 0 1 0 -30.529997,0 v 26 h -44.56 a 13.54,13.54 0 0 1 -13.53,-13.53 V 53.519706 a 13.53,13.53 0 0 1 13.53,-13.53 H 259.05632 a 13.52,13.52 0 0 1 13.52,13.53 v 44.48 h -26 a 15.27,15.27 0 0 0 -15.22,15.280004 z"
     id="path6" />
  <path
     class="cls-2"
     d="m 497.03632,113.27971 a 15.27,15.27 0 0 0 15.26,15.27 h 26 v 58 h -26 a 15.27,15.27 0 0 0 0,30.53 h 26 v 44.5 a 13.53,13.53 0 0 1 -13.52,13.53 h -208.13 a 13.52,13.52 0 0 1 -13.52,-13.53 v -44.5 h 25.94 a 15.27,15.27 0 1 0 0,-30.53 h -25.94 v -58 h 25.94 a 15.28,15.28 0 1 0 0,-30.550004 h -25.94 v -44.48 a 13.51,13.51 0 0 1 13.52,-13.53 h 208.09 a 13.52,13.52 0 0 1 13.52,13.53 v 44.48 h -26 a 15.27,15.27 0 0 0 -15.22,15.280004 z"
     id="path8" />
  <path
     class="cls-3"
     d="M 803.92632,53.519706 V 261.59971 a 13.52,13.52 0 0 1 -13.52,13.53 h -44.5 v -26 a 15.27,15.27 0 1 0 -30.53,0 v 26 h -58 v -26 a 15.27,15.27 0 1 0 -30.53,0 v 26 h -44.5 a 13.54,13.54 0 0 1 -13.53,-13.53 v -44.5 h 26 a 15.27,15.27 0 1 0 0,-30.53 h -26 v -58 h 26 a 15.28,15.28 0 0 0 0,-30.550004 h -26 v -44.5 a 13.53,13.53 0 0 1 13.53,-13.53 h 208.06 a 13.52,13.52 0 0 1 13.52,13.53 z"
     id="path10" />
  <path
     class="cls-2"
     d="m 272.57632,319.17971 v 208.09 a 13.52,13.52 0 0 1 -13.52,13.53 h -44.5 v -26 a 15.27,15.27 0 0 0 -30.54,0 v 26 h -58 v -26 a 15.27,15.27 0 1 0 -30.529997,0 v 26 h -44.52 a 13.53,13.53 0 0 1 -13.53,-13.53 v -208.09 a 13.54,13.54 0 0 1 13.53,-13.52 h 44.5 v 26 a 15.27,15.27 0 0 0 30.529997,0 v -26 h 58 v 26 a 15.27,15.27 0 0 0 30.54,0 v -26 h 44.5 a 13.52,13.52 0 0 1 13.54,13.52 z"
     id="path12" />
  <path
     class="cls-3"
     d="m 497.03632,378.94971 a 15.25,15.25 0 0 0 15.26,15.26 h 26 v 58 h -26 a 15.27,15.27 0 0 0 0,30.53 h 26 v 44.5 a 13.52,13.52 0 0 1 -13.52,13.53 h -44.58 v -26 a 15.27,15.27 0 1 0 -30.53,0 v 26 h -58 v -26 a 15.27,15.27 0 1 0 -30.54,0 v 26 h -44.48 a 13.51,13.51 0 0 1 -13.52,-13.53 v -208.06 a 13.52,13.52 0 0 1 13.52,-13.52 h 208.09 a 13.53,13.53 0 0 1 13.52,13.52 v 44.5 h -26 a 15.26,15.26 0 0 0 -15.22,15.27 z"
     id="path14" />
  <path
     class="cls-4"
     d="m 803.92632,319.17971 v 208.09 a 13.52,13.52 0 0 1 -13.52,13.53 h -208.09 a 13.53,13.53 0 0 1 -13.53,-13.53 v -44.53 h 26 a 15.27,15.27 0 1 0 0,-30.53 h -26 v -58 h 26 a 15.27,15.27 0 1 0 0,-30.53 h -26 v -44.5 a 13.54,13.54 0 0 1 13.53,-13.52 h 44.5 v 26 a 15.27,15.27 0 0 0 30.53,0 v -26 h 58 v 26 a 15.27,15.27 0 0 0 30.53,0 v -26 h 44.5 a 13.52,13.52 0 0 1 13.55,13.52 z"
     id="path16" />
  <path
     class="cls-1"
     d="m 231.35632,644.62971 a 15.28,15.28 0 0 0 15.26,15.27 h 26 v 58 h -26 a 15.27,15.27 0 0 0 0,30.54 h 26 v 44.5 a 13.52,13.52 0 0 1 -13.52,13.53 H 50.966323 a 13.54,13.54 0 0 1 -13.53,-13.53 v -208.07 a 13.53,13.53 0 0 1 13.53,-13.53 h 44.5 v 25.95 a 15.27,15.27 0 1 0 30.529997,0 v -25.95 h 58 v 25.95 a 15.27,15.27 0 1 0 30.54,0 v -25.95 h 44.5 a 13.52,13.52 0 0 1 13.52,13.53 v 44.48 h -26 a 15.28,15.28 0 0 0 -15.2,15.28 z"
     id="path18" />
  <path
     class="cls-4"
     d="m 538.25632,584.86971 v 208.08 a 13.53,13.53 0 0 1 -13.52,13.53 h -208.09 a 13.52,13.52 0 0 1 -13.52,-13.53 v -44.5 h 25.94 a 15.27,15.27 0 1 0 0,-30.54 h -25.94 v -58 h 25.94 a 15.28,15.28 0 1 0 0,-30.55 h -25.94 v -44.49 a 13.51,13.51 0 0 1 13.52,-13.53 h 44.49 v 25.95 a 15.27,15.27 0 1 0 30.54,0 v -25.95 h 58 v 25.95 a 15.27,15.27 0 1 0 30.53,0 v -25.95 h 44.5 a 13.52,13.52 0 0 1 13.55,13.53 z"
     id="path20" />
  <rect
     class="cls-1"
     x="-119.36211"
     y="923.7514"
     width="235.14"
     height="235.14"
     rx="13.53"
     transform="rotate(-45)"
     id="rect22" />
</svg>
