<?xml version="1.0" encoding="UTF-8" standalone="no"?>
<!-- Generator: Adobe Illustrator 19.0.0, SVG Export Plug-In . SVG Version: 6.00 Build 0)  -->

<svg
   version="1.1"
   id="Layer_1"
   x="0px"
   y="0px"
   viewBox="0 0 461 461"
   style="enable-background:new 0 0 461 461;"
   xml:space="preserve"
   sodipodi:docname="settings.svg"
   inkscape:version="1.2.1 (9c6d41e410, 2022-07-14, custom)"
   xmlns:inkscape="http://www.inkscape.org/namespaces/inkscape"
   xmlns:sodipodi="http://sodipodi.sourceforge.net/DTD/sodipodi-0.dtd"
   xmlns="http://www.w3.org/2000/svg"
   xmlns:svg="http://www.w3.org/2000/svg"><defs
   id="defs41" /><sodipodi:namedview
   id="namedview39"
   pagecolor="#ffffff"
   bordercolor="#000000"
   borderopacity="0.25"
   inkscape:showpageshadow="2"
   inkscape:pageopacity="0.0"
   inkscape:pagecheckerboard="0"
   inkscape:deskcolor="#d1d1d1"
   showgrid="false"
   inkscape:zoom="1.6117137"
   inkscape:cx="106.09825"
   inkscape:cy="230.18977"
   inkscape:window-width="1920"
   inkscape:window-height="1057"
   inkscape:window-x="0"
   inkscape:window-y="0"
   inkscape:window-maximized="1"
   inkscape:current-layer="g6" />
<g
   id="g6">
	<g
   id="g4"
   style="fill:#e6a32e;fill-opacity:1">
		<path
   d="M421,190.5h-26.018c-4.163-17.178-10.938-33.336-19.895-48.019l18.401-18.401c15.621-15.621,15.621-40.947,0-56.568    c-15.622-15.621-40.948-15.622-56.568,0l-18.401,18.401c-14.683-8.958-30.84-15.732-48.019-19.895V40c0-22.091-17.908-40-40-40    s-40,17.909-40,40v26.018c-17.178,4.163-33.336,10.938-48.019,19.895L124.08,67.512c-15.621-15.621-40.947-15.621-56.568,0    c-15.621,15.621-15.621,40.948,0,56.568l18.401,18.401c-8.958,14.683-15.732,30.84-19.895,48.019H40c-22.092,0-40,17.909-40,40    s17.908,40,40,40h26.018c4.163,17.178,10.938,33.335,19.895,48.018l-18.401,18.401c-15.621,15.621-15.621,40.947,0,56.568    c7.811,7.811,18.047,11.716,28.284,11.716s20.474-3.905,28.284-11.716l18.401-18.401c14.683,8.958,30.84,15.732,48.019,19.895V421    c0,22.091,17.908,40,40,40s40-17.909,40-40v-26.018c17.178-4.163,33.336-10.938,48.019-19.895l18.401,18.401    c7.811,7.811,18.047,11.716,28.284,11.716s20.474-3.905,28.284-11.716c15.621-15.621,15.621-40.947,0-56.568l-18.401-18.401    c8.958-14.683,15.732-30.84,19.895-48.018H421c22.092,0,40-17.909,40-40S443.092,190.5,421,190.5z M230.5,307.5    c-42.526,0-77-34.474-77-77s34.474-77,77-77s77,34.474,77,77S273.026,307.5,230.5,307.5z"
   id="path2"
   style="fill:#e6a32e;fill-opacity:1" />
	</g>
</g>
<g
   id="g8">
</g>
<g
   id="g10">
</g>
<g
   id="g12">
</g>
<g
   id="g14">
</g>
<g
   id="g16">
</g>
<g
   id="g18">
</g>
<g
   id="g20">
</g>
<g
   id="g22">
</g>
<g
   id="g24">
</g>
<g
   id="g26">
</g>
<g
   id="g28">
</g>
<g
   id="g30">
</g>
<g
   id="g32">
</g>
<g
   id="g34">
</g>
<g
   id="g36">
</g>
</svg>
