<?xml version="1.0" encoding="UTF-8" standalone="no"?>
<svg
   width="24px"
   height="24px"
   viewBox="0 0 24 24"
   role="img"
   version="1.1"
   id="svg1571"
   sodipodi:docname="versions.svg"
   inkscape:version="1.2.1 (9c6d41e410, 2022-07-14, custom)"
   xmlns:inkscape="http://www.inkscape.org/namespaces/inkscape"
   xmlns:sodipodi="http://sodipodi.sourceforge.net/DTD/sodipodi-0.dtd"
   xmlns="http://www.w3.org/2000/svg"
   xmlns:svg="http://www.w3.org/2000/svg">
  <defs
     id="defs1575" />
  <sodipodi:namedview
     id="namedview1573"
     pagecolor="#ffffff"
     bordercolor="#000000"
     borderopacity="0.25"
     inkscape:showpageshadow="2"
     inkscape:pageopacity="0.0"
     inkscape:pagecheckerboard="0"
     inkscape:deskcolor="#d1d1d1"
     showgrid="false"
     inkscape:zoom="30.958333"
     inkscape:cx="11.983849"
     inkscape:cy="11.983849"
     inkscape:window-width="1920"
     inkscape:window-height="1057"
     inkscape:window-x="0"
     inkscape:window-y="0"
     inkscape:window-maximized="1"
     inkscape:current-layer="svg1571" />
  <title
     id="title1567">Mojang Studios icon</title>
  <path
     d="M6.912 0A6.913 6.913 0 000 6.912V24h17.088A6.912 6.912 0 0024 17.088V0h-4.992zm10.111 2.594c.566 0 1.024 2.505 1.024 3.07a1.024 1.024 0 11-2.047 0c0-.565.459-3.07 1.023-3.07zM14.41 5.498c.69.19 2.082 3.77 3.637 2.215 1.448-1.448 2.049 7.164 2.049 7.164l-2.05-1.022s.002-2.048-3.07-4.095c-3.809-2.54-8.189-.867-8.189 3.07 0 8.033 13.309 5.12 13.309 5.12s-.002 2.046-2.05 2.046H5.765c-2.047 0-2.05-2.047-2.05-2.047V7.713c0-2.048 2.05-2.049 2.05-2.049h4.093c2.048 0 4.096 2.049 4.096 2.049 0-1.49.117-2.098.328-2.205a.175.175 0 01.13-.01z"
     id="path1569"
     style="fill:#e6a32e;fill-opacity:1" />
</svg>
